<svg version="1.1" xmlns="http://www.w3.org/2000/svg" xmlns:xlink="http://www.w3.org/1999/xlink" width="1128" height="525.5045351240733"><defs/><g transform="translate(0,0)"><g><rect fill="#FFFFFF" stroke="none" x="0" y="0" width="1128" height="525.5045351240733"/></g><g transform="translate(0,0) matrix(1,0,0,1,330,475.5045351240733)"><g><g transform="translate(0,0) scale(1,0.3)"><g><path fill="none" stroke="none" d="M 10 0 L 90 0 Q 100 0 100 10 L 100 90 Q 100 100 90 100 L 10 100 Q 0 100 0 90 L 0 10 Q 0 0 10 0 Z"/><g transform="scale(1,3.3333333333333335)"><path fill="#CCD5E1" stroke="none" d="M 10 0 L 90 0 Q 100 0 100 10 L 100 20 Q 100 30 90 30 L 10 30 Q 0 30 0 20 L 0 10 Q 0 0 10 0 Z"/><path fill="none" stroke="#003068" d="M 10 0 M 10 0 L 90 0 Q 100 0 100 10 L 100 20 Q 100 30 90 30 L 10 30 Q 0 30 0 20 L 0 10 Q 0 0 10 0 Z" stroke-miterlimit="10" stroke-width="2"/></g></g></g></g></g><g transform="scale(1,1) matrix(1,0,0,1,332,475.5045351240733) translate(8,8)"><text fill="rgb(1, 11, 20)" stroke="none" font-family="Arial" font-size="12px" font-style="normal" font-weight="normal" text-decoration="none" x="0.3994140625" y="11">Пользователь</text></g><g transform="translate(0,0) matrix(1,0,0,1,450,475.5045351240733)"><g><g transform="translate(0,0) scale(1,0.3)"><g><path fill="none" stroke="none" d="M 10 0 L 90 0 Q 100 0 100 10 L 100 90 Q 100 100 90 100 L 10 100 Q 0 100 0 90 L 0 10 Q 0 0 10 0 Z"/><g transform="scale(1,3.3333333333333335)"><path fill="#CCD5E1" stroke="none" d="M 10 0 L 90 0 Q 100 0 100 10 L 100 20 Q 100 30 90 30 L 10 30 Q 0 30 0 20 L 0 10 Q 0 0 10 0 Z"/><path fill="none" stroke="#003068" d="M 10 0 M 10 0 L 90 0 Q 100 0 100 10 L 100 20 Q 100 30 90 30 L 10 30 Q 0 30 0 20 L 0 10 Q 0 0 10 0 Z" stroke-miterlimit="10" stroke-width="2"/></g></g></g></g></g><g transform="scale(1,1) matrix(1,0,0,1,452,475.5045351240733) translate(8,8)"><text fill="rgb(1, 11, 20)" stroke="none" font-family="Arial" font-size="12px" font-style="normal" font-weight="normal" text-decoration="none" x="0.3994140625" y="11">Пользователь</text></g><g transform="translate(0,0) matrix(1,0,0,1,570,475.5045351240733)"><g><g transform="translate(0,0) scale(1,0.3)"><g><path fill="none" stroke="none" d="M 10 0 L 90 0 Q 100 0 100 10 L 100 90 Q 100 100 90 100 L 10 100 Q 0 100 0 90 L 0 10 Q 0 0 10 0 Z"/><g transform="scale(1,3.3333333333333335)"><path fill="#CCD5E1" stroke="none" d="M 10 0 L 90 0 Q 100 0 100 10 L 100 20 Q 100 30 90 30 L 10 30 Q 0 30 0 20 L 0 10 Q 0 0 10 0 Z"/><path fill="none" stroke="#003068" d="M 10 0 M 10 0 L 90 0 Q 100 0 100 10 L 100 20 Q 100 30 90 30 L 10 30 Q 0 30 0 20 L 0 10 Q 0 0 10 0 Z" stroke-miterlimit="10" stroke-width="2"/></g></g></g></g></g><g transform="scale(1,1) matrix(1,0,0,1,572,475.5045351240733) translate(8,8)"><text fill="rgb(1, 11, 20)" stroke="none" font-family="Arial" font-size="12px" font-style="normal" font-weight="normal" text-decoration="none" x="0.3994140625" y="11">Пользователь</text></g><g transform="translate(0,0) matrix(1,0,0,1,690,475.5045351240733)"><g><g transform="translate(0,0) scale(1,0.3)"><g><path fill="none" stroke="none" d="M 10 0 L 90 0 Q 100 0 100 10 L 100 90 Q 100 100 90 100 L 10 100 Q 0 100 0 90 L 0 10 Q 0 0 10 0 Z"/><g transform="scale(1,3.3333333333333335)"><path fill="#CCD5E1" stroke="none" d="M 10 0 L 90 0 Q 100 0 100 10 L 100 20 Q 100 30 90 30 L 10 30 Q 0 30 0 20 L 0 10 Q 0 0 10 0 Z"/><path fill="none" stroke="#003068" d="M 10 0 M 10 0 L 90 0 Q 100 0 100 10 L 100 20 Q 100 30 90 30 L 10 30 Q 0 30 0 20 L 0 10 Q 0 0 10 0 Z" stroke-miterlimit="10" stroke-width="2"/></g></g></g></g></g><g transform="scale(1,1) matrix(1,0,0,1,692,475.5045351240733) translate(8,8)"><text fill="rgb(1, 11, 20)" stroke="none" font-family="Arial" font-size="12px" font-style="normal" font-weight="normal" text-decoration="none" x="0.3994140625" y="11">Пользователь</text></g><g transform="translate(0,0) matrix(1,0,0,1,385,375.5045351240733)"><g><g transform="translate(0,0) scale(1.3,0.5)"><g><g transform="scale(0.7692307692307692,2)"><path fill="#d5a6bd" stroke="none" d="M 39 0 L 91 0 L 130 15 L 130 35 L 91 50 L 39 50 L 0 35 L 0 15 L 39 0 Z"/><path fill="none" stroke="#a64d79" d="M 39 0 M 39 0 L 91 0 L 130 15 L 130 35 L 91 50 L 39 50 L 0 35 L 0 15 L 39 0 Z" stroke-miterlimit="10" stroke-width="2"/></g></g></g></g></g><g transform="scale(1,1) matrix(1,0,0,1,387.6,375.5045351240733) translate(8,11)"><text fill="rgb(3, 28, 0)" stroke="none" font-family="Arial" font-size="12px" font-style="normal" font-weight="normal" text-decoration="none" x="10.349218749999991" y="11">балансировщик</text><text fill="rgb(3, 28, 0)" stroke="none" font-family="Arial" font-size="12px" font-style="normal" font-weight="normal" text-decoration="none" x="32.38339843749999" y="25">frontend</text></g><g transform="translate(0,0) matrix(1,0,0,1,570,375.5045351240733)"><g><g transform="translate(0,0) scale(1.3,0.5)"><g><g transform="scale(0.7692307692307692,2)"><path fill="#d5a6bd" stroke="none" d="M 39 0 L 91 0 L 130 15 L 130 35 L 91 50 L 39 50 L 0 35 L 0 15 L 39 0 Z"/><path fill="none" stroke="#a64d79" d="M 39 0 M 39 0 L 91 0 L 130 15 L 130 35 L 91 50 L 39 50 L 0 35 L 0 15 L 39 0 Z" stroke-miterlimit="10" stroke-width="2"/></g></g></g></g></g><g transform="scale(1,1) matrix(1,0,0,1,572.6,375.5045351240733) translate(8,11)"><text fill="rgb(3, 28, 0)" stroke="none" font-family="Arial" font-size="12px" font-style="normal" font-weight="normal" text-decoration="none" x="10.349218749999991" y="11">балансировщик</text><text fill="rgb(3, 28, 0)" stroke="none" font-family="Arial" font-size="12px" font-style="normal" font-weight="normal" text-decoration="none" x="32.38339843749999" y="25">frontend</text></g><g transform="matrix(1,0,0,1,248.49918434414292,440.0045351240732)"><g transform="translate(0,0)"><g transform="translate(-245,-444.5045351240733) translate(-3.4991843441429182,4.500000000000114) matrix(1,0,0,1,0,0)"><g><path fill="none" stroke="#003068" d="M 252.99918434414292 444.5045351240732 M 252.99918434414292 444.5045351240732 L 254.99918434414292 444.5045351240732 M 254.99918434414292 444.5045351240732 M 256.9991843441429 444.5045351240732 L 258.9991843441429 444.5045351240732 M 258.9991843441429 444.5045351240732 M 260.9991843441429 444.5045351240732 L 262.9991843441429 444.5045351240732 M 262.9991843441429 444.5045351240732 M 264.9991843441429 444.5045351240732 L 266.9991843441429 444.5045351240732 M 266.9991843441429 444.5045351240732 M 268.9991843441429 444.5045351240732 L 270.9991843441429 444.5045351240732 M 270.9991843441429 444.5045351240732 M 272.9991843441429 444.5045351240732 L 274.9991843441429 444.5045351240732 M 274.9991843441429 444.5045351240732 M 276.9991843441429 444.5045351240732 L 278.9991843441429 444.5045351240732 M 278.9991843441429 444.5045351240732 M 280.9991843441429 444.5045351240732 L 282.9991843441429 444.5045351240732 M 282.9991843441429 444.5045351240732 M 284.9991843441429 444.5045351240732 L 286.9991843441429 444.5045351240732 M 286.9991843441429 444.5045351240732 M 288.9991843441429 444.5045351240732 L 290.9991843441429 444.5045351240732 M 290.9991843441429 444.5045351240732 M 292.9991843441429 444.5045351240732 L 294.9991843441429 444.5045351240732 M 294.9991843441429 444.5045351240732 M 296.9991843441429 444.5045351240732 L 298.9991843441429 444.5045351240732 M 298.9991843441429 444.5045351240732 M 300.9991843441429 444.5045351240732 L 302.9991843441429 444.5045351240732 M 302.9991843441429 444.5045351240732 M 304.9991843441429 444.5045351240732 L 306.9991843441429 444.5045351240732 M 306.9991843441429 444.5045351240732 M 308.9991843441429 444.5045351240732 L 310.9991843441429 444.5045351240732 M 310.9991843441429 444.5045351240732 M 312.9991843441429 444.5045351240732 L 314.9991843441429 444.5045351240732 M 314.9991843441429 444.5045351240732 M 316.9991843441429 444.5045351240732 L 318.9991843441429 444.5045351240732 M 318.9991843441429 444.5045351240732 M 320.9991843441429 444.5045351240732 L 322.9991843441429 444.5045351240732 M 322.9991843441429 444.5045351240732 M 324.9991843441429 444.5045351240732 L 326.9991843441429 444.5045351240732 M 326.9991843441429 444.5045351240732 M 328.9991843441429 444.5045351240732 L 330.9991843441429 444.5045351240732 M 330.9991843441429 444.5045351240732 M 332.9991843441429 444.5045351240732 L 334.9991843441429 444.5045351240732 M 334.9991843441429 444.5045351240732 M 336.9991843441429 444.5045351240732 L 338.9991843441429 444.5045351240732 M 338.9991843441429 444.5045351240732 M 340.9991843441429 444.5045351240732 L 342.9991843441429 444.5045351240732 M 342.9991843441429 444.5045351240732 M 344.9991843441429 444.5045351240732 L 346.9991843441429 444.5045351240732 M 346.9991843441429 444.5045351240732 M 348.9991843441429 444.5045351240732 L 350.9991843441429 444.5045351240732 M 350.9991843441429 444.5045351240732 M 352.9991843441429 444.5045351240732 L 354.9991843441429 444.5045351240732 M 354.9991843441429 444.5045351240732 M 356.9991843441429 444.5045351240732 L 358.9991843441429 444.5045351240732 M 358.9991843441429 444.5045351240732 M 360.9991843441429 444.5045351240732 L 362.9991843441429 444.5045351240732 M 362.9991843441429 444.5045351240732 M 364.9991843441429 444.5045351240732 L 366.9991843441429 444.5045351240732 M 366.9991843441429 444.5045351240732 M 368.9991843441429 444.5045351240732 L 370.9991843441429 444.5045351240732 M 370.9991843441429 444.5045351240732 M 372.9991843441429 444.5045351240732 L 374.9991843441429 444.5045351240732 M 374.9991843441429 444.5045351240732 M 376.9991843441429 444.5045351240732 L 378.9991843441429 444.5045351240732 M 378.9991843441429 444.5045351240732 M 380.9991843441429 444.5045351240732 L 382.9991843441429 444.5045351240732 M 382.9991843441429 444.5045351240732 M 384.9991843441429 444.5045351240732 L 386.9991843441429 444.5045351240732 M 386.9991843441429 444.5045351240732 M 388.9991843441429 444.5045351240732 L 390.9991843441429 444.5045351240732 M 390.9991843441429 444.5045351240732 M 392.9991843441429 444.5045351240732 L 394.9991843441429 444.5045351240732 M 394.9991843441429 444.5045351240732 M 396.9991843441429 444.5045351240732 L 398.9991843441429 444.5045351240732 M 398.9991843441429 444.5045351240732 M 400.9991843441429 444.5045351240732 L 402.9991843441429 444.5045351240732 M 402.9991843441429 444.5045351240732 M 404.9991843441429 444.5045351240732 L 406.9991843441429 444.5045351240732 M 406.9991843441429 444.5045351240732 M 408.9991843441429 444.5045351240732 L 410.9991843441429 444.5045351240732 M 410.9991843441429 444.5045351240732 M 412.9991843441429 444.5045351240732 L 414.9991843441429 444.5045351240732 M 414.9991843441429 444.5045351240732 M 416.9991843441429 444.5045351240732 L 418.9991843441429 444.5045351240732 M 418.9991843441429 444.5045351240732 M 420.9991843441429 444.5045351240732 L 422.9991843441429 444.5045351240732 M 422.9991843441429 444.5045351240732 M 424.9991843441429 444.5045351240732 L 426.9991843441429 444.5045351240732 M 426.9991843441429 444.5045351240732 M 428.9991843441429 444.5045351240732 L 430.9991843441429 444.5045351240732 M 430.9991843441429 444.5045351240732 M 432.9991843441429 444.5045351240732 L 434.9991843441429 444.5045351240732 M 434.9991843441429 444.5045351240732 M 436.9991843441429 444.5045351240732 L 438.9991843441429 444.5045351240732 M 438.9991843441429 444.5045351240732 M 440.9991843441429 444.5045351240732 L 442.9991843441429 444.5045351240732 M 442.9991843441429 444.5045351240732 M 444.9991843441429 444.5045351240732 L 446.9991843441429 444.5045351240732 M 446.9991843441429 444.5045351240732 M 448.9991843441429 444.5045351240732 L 450.9991843441429 444.5045351240732 M 450.9991843441429 444.5045351240732 M 452.9991843441429 444.5045351240732 L 454.9991843441429 444.5045351240732 M 454.9991843441429 444.5045351240732 M 456.9991843441429 444.5045351240732 L 458.9991843441429 444.5045351240732 M 458.9991843441429 444.5045351240732 M 460.9991843441429 444.5045351240732 L 462.9991843441429 444.5045351240732 M 462.9991843441429 444.5045351240732 M 464.9991843441429 444.5045351240732 L 466.9991843441429 444.5045351240732 M 466.9991843441429 444.5045351240732 M 468.9991843441429 444.5045351240732 L 470.9991843441429 444.5045351240732 M 470.9991843441429 444.5045351240732 M 472.9991843441429 444.5045351240732 L 474.9991843441429 444.5045351240732 M 474.9991843441429 444.5045351240732 M 476.9991843441429 444.5045351240732 L 478.9991843441429 444.5045351240732 M 478.9991843441429 444.5045351240732 M 480.9991843441429 444.5045351240732 L 482.9991843441429 444.5045351240732 M 482.9991843441429 444.5045351240732 M 484.9991843441429 444.5045351240732 L 486.9991843441429 444.5045351240732 M 486.9991843441429 444.5045351240732 M 488.9991843441429 444.5045351240732 L 490.9991843441429 444.5045351240732 M 490.9991843441429 444.5045351240732 M 492.9991843441429 444.5045351240732 L 494.9991843441429 444.5045351240732 M 494.9991843441429 444.5045351240732 M 496.9991843441429 444.5045351240732 L 498.9991843441429 444.5045351240732 M 498.9991843441429 444.5045351240732 M 500.9991843441429 444.5045351240732 L 502.9991843441429 444.5045351240732 M 502.9991843441429 444.5045351240732 M 504.9991843441429 444.5045351240732 L 506.9991843441429 444.5045351240732 M 506.9991843441429 444.5045351240732 M 508.9991843441429 444.5045351240732 L 510.9991843441429 444.5045351240732 M 510.9991843441429 444.5045351240732 M 512.9991843441429 444.5045351240732 L 514.9991843441429 444.5045351240732 M 514.9991843441429 444.5045351240732 M 516.9991843441429 444.5045351240732 L 518.9991843441429 444.5045351240732 M 518.9991843441429 444.5045351240732 M 520.9991843441429 444.5045351240732 L 522.9991843441429 444.5045351240732 M 522.9991843441429 444.5045351240732 M 524.9991843441429 444.5045351240732 L 526.9991843441429 444.5045351240732 M 526.9991843441429 444.5045351240732 M 528.9991843441429 444.5045351240732 L 530.9991843441429 444.5045351240732 M 530.9991843441429 444.5045351240732 M 532.9991843441429 444.5045351240732 L 534.9991843441429 444.5045351240732 M 534.9991843441429 444.5045351240732 M 536.9991843441429 444.5045351240732 L 538.9991843441429 444.5045351240732 M 538.9991843441429 444.5045351240732 M 540.9991843441429 444.5045351240732 L 542.9991843441429 444.5045351240732 M 542.9991843441429 444.5045351240732 M 544.9991843441429 444.5045351240732 L 546.9991843441429 444.5045351240732 M 546.9991843441429 444.5045351240732 M 548.9991843441429 444.5045351240732 L 550.9991843441429 444.5045351240732 M 550.9991843441429 444.5045351240732 M 552.9991843441429 444.5045351240732 L 554.9991843441429 444.5045351240732 M 554.9991843441429 444.5045351240732 M 556.9991843441429 444.5045351240732 L 558.9991843441429 444.5045351240732 M 558.9991843441429 444.5045351240732 M 560.9991843441429 444.5045351240732 L 562.9991843441429 444.5045351240732 M 562.9991843441429 444.5045351240732 M 564.9991843441429 444.5045351240732 L 566.9991843441429 444.5045351240732 M 566.9991843441429 444.5045351240732 M 568.9991843441429 444.5045351240732 L 570.9991843441429 444.5045351240732 M 570.9991843441429 444.5045351240732 M 572.9991843441429 444.5045351240732 L 574.9991843441429 444.5045351240732 M 574.9991843441429 444.5045351240732 M 576.9991843441429 444.5045351240732 L 578.9991843441429 444.5045351240732 M 578.9991843441429 444.5045351240732 M 580.9991843441429 444.5045351240732 L 582.9991843441429 444.5045351240732 M 582.9991843441429 444.5045351240732 M 584.9991843441429 444.5045351240732 L 586.9991843441429 444.5045351240732 M 586.9991843441429 444.5045351240732 M 588.9991843441429 444.5045351240732 L 590.9991843441429 444.5045351240732 M 590.9991843441429 444.5045351240732 M 592.9991843441429 444.5045351240732 L 594.9991843441429 444.5045351240732 M 594.9991843441429 444.5045351240732 M 596.9991843441429 444.5045351240732 L 598.9991843441429 444.5045351240732 M 598.9991843441429 444.5045351240732 M 600.9991843441429 444.5045351240732 L 602.9991843441429 444.5045351240732 M 602.9991843441429 444.5045351240732 M 604.9991843441429 444.5045351240732 L 606.9991843441429 444.5045351240732 M 606.9991843441429 444.5045351240732 M 608.9991843441429 444.5045351240732 L 610.9991843441429 444.5045351240732 M 610.9991843441429 444.5045351240732 M 612.9991843441429 444.5045351240732 L 614.9991843441429 444.5045351240732 M 614.9991843441429 444.5045351240732 M 616.9991843441429 444.5045351240732 L 618.9991843441429 444.5045351240732 M 618.9991843441429 444.5045351240732 M 620.9991843441429 444.5045351240732 L 622.9991843441429 444.5045351240732 M 622.9991843441429 444.5045351240732 M 624.9991843441429 444.5045351240732 L 626.9991843441429 444.5045351240732 M 626.9991843441429 444.5045351240732 M 628.9991843441429 444.5045351240732 L 630.9991843441429 444.5045351240732 M 630.9991843441429 444.5045351240732 M 632.9991843441429 444.5045351240732 L 634.9991843441429 444.5045351240732 M 634.9991843441429 444.5045351240732 M 636.9991843441429 444.5045351240732 L 638.9991843441429 444.5045351240732 M 638.9991843441429 444.5045351240732 M 640.9991843441429 444.5045351240732 L 642.9991843441429 444.5045351240732 M 642.9991843441429 444.5045351240732 M 644.9991843441429 444.5045351240732 L 646.9991843441429 444.5045351240732 M 646.9991843441429 444.5045351240732 M 648.9991843441429 444.5045351240732 L 650.9991843441429 444.5045351240732 M 650.9991843441429 444.5045351240732 M 652.9991843441429 444.5045351240732 L 654.9991843441429 444.5045351240732 M 654.9991843441429 444.5045351240732 M 656.9991843441429 444.5045351240732 L 658.9991843441429 444.5045351240732 M 658.9991843441429 444.5045351240732 M 660.9991843441429 444.5045351240732 L 662.9991843441429 444.5045351240732 M 662.9991843441429 444.5045351240732 M 664.9991843441429 444.5045351240732 L 666.9991843441429 444.5045351240732 M 666.9991843441429 444.5045351240732 M 668.9991843441429 444.5045351240732 L 670.9991843441429 444.5045351240732 M 670.9991843441429 444.5045351240732 M 672.9991843441429 444.5045351240732 L 674.9991843441429 444.5045351240732 M 674.9991843441429 444.5045351240732 M 676.9991843441429 444.5045351240732 L 678.9991843441429 444.5045351240732 M 678.9991843441429 444.5045351240732 M 680.9991843441429 444.5045351240732 L 682.9991843441429 444.5045351240732 M 682.9991843441429 444.5045351240732 M 684.9991843441429 444.5045351240732 L 686.9991843441429 444.5045351240732 M 686.9991843441429 444.5045351240732 M 688.9991843441429 444.5045351240732 L 690.9991843441429 444.5045351240732 M 690.9991843441429 444.5045351240732 M 692.9991843441429 444.5045351240732 L 694.9991843441429 444.5045351240732 M 694.9991843441429 444.5045351240732 M 696.9991843441429 444.5045351240732 L 698.9991843441429 444.5045351240732 M 698.9991843441429 444.5045351240732 M 700.9991843441429 444.5045351240732 L 702.9991843441429 444.5045351240732 M 702.9991843441429 444.5045351240732 M 704.9991843441429 444.5045351240732 L 706.9991843441429 444.5045351240732 M 706.9991843441429 444.5045351240732 M 708.9991843441429 444.5045351240732 L 710.9991843441429 444.5045351240732 M 710.9991843441429 444.5045351240732 M 712.9991843441429 444.5045351240732 L 714.9991843441429 444.5045351240732 M 714.9991843441429 444.5045351240732 M 716.9991843441429 444.5045351240732 L 718.9991843441429 444.5045351240732 M 718.9991843441429 444.5045351240732 M 720.9991843441429 444.5045351240732 L 722.9991843441429 444.5045351240732 M 722.9991843441429 444.5045351240732 M 724.9991843441429 444.5045351240732 L 726.9991843441429 444.5045351240732 M 726.9991843441429 444.5045351240732 M 728.9991843441429 444.5045351240732 L 730.9991843441429 444.5045351240732 M 730.9991843441429 444.5045351240732 M 732.9991843441429 444.5045351240732 L 734.9991843441429 444.5045351240732 M 734.9991843441429 444.5045351240732 M 736.9991843441429 444.5045351240732 L 738.9991843441429 444.5045351240732 M 738.9991843441429 444.5045351240732 M 740.9991843441429 444.5045351240732 L 742.9991843441429 444.5045351240732 M 742.9991843441429 444.5045351240732 M 744.9991843441429 444.5045351240732 L 746.9991843441429 444.5045351240732 M 746.9991843441429 444.5045351240732 M 748.9991843441429 444.5045351240732 L 750.9991843441429 444.5045351240732 M 750.9991843441429 444.5045351240732 M 752.9991843441429 444.5045351240732 L 754.9991843441429 444.5045351240732 M 754.9991843441429 444.5045351240732 M 756.9991843441429 444.5045351240732 L 758.9991843441429 444.5045351240732 M 758.9991843441429 444.5045351240732 M 760.9991843441429 444.5045351240732 L 762.9991843441429 444.5045351240732 M 762.9991843441429 444.5045351240732 M 764.9991843441429 444.5045351240732 L 766.9991843441429 444.5045351240732 M 766.9991843441429 444.5045351240732 M 768.9991843441429 444.5045351240732 L 770.9991843441429 444.5045351240732 M 770.9991843441429 444.5045351240732 M 772.9991843441429 444.5045351240732 L 774.9991843441429 444.5045351240732 M 774.9991843441429 444.5045351240732 M 776.9991843441429 444.5045351240732 L 778.9991843441429 444.5045351240732 M 778.9991843441429 444.5045351240732 M 780.9991843441429 444.5045351240732 L 782.9991843441429 444.5045351240732 M 782.9991843441429 444.5045351240732 M 784.9991843441429 444.5045351240732 L 786.9991843441429 444.5045351240732 M 786.9991843441429 444.5045351240732 M 788.9991843441429 444.5045351240732 L 790.9991843441429 444.5045351240732 M 790.9991843441429 444.5045351240732 M 792.9991843441429 444.5045351240732 L 794.9991843441429 444.5045351240732 M 794.9991843441429 444.5045351240732 M 796.9991843441429 444.5045351240732 L 798.9991843441429 444.5045351240732 M 798.9991843441429 444.5045351240732 M 800.9991843441429 444.5045351240732 L 802.9991843441429 444.5045351240732 M 802.9991843441429 444.5045351240732 M 804.9991843441429 444.5045351240732 L 806.9991843441429 444.5045351240732 M 806.9991843441429 444.5045351240732 M 808.9991843441429 444.5045351240732 L 810.9991843441429 444.5045351240732 M 810.9991843441429 444.5045351240732 M 812.9991843441429 444.5045351240732 L 814.9991843441429 444.5045351240732 M 814.9991843441429 444.5045351240732 M 816.9991843441429 444.5045351240732 L 818.9991843441429 444.5045351240732 M 818.9991843441429 444.5045351240732 M 820.9991843441429 444.5045351240732 L 822.9991843441429 444.5045351240732 M 822.9991843441429 444.5045351240732 M 824.9991843441429 444.5045351240732 L 826.9991843441429 444.5045351240732 M 826.9991843441429 444.5045351240732 M 828.9991843441429 444.5045351240732 L 830.9991843441429 444.5045351240732 M 830.9991843441429 444.5045351240732 M 832.9991843441429 444.5045351240732 L 834.9991843441429 444.5045351240732 M 834.9991843441429 444.5045351240732 M 836.9991843441429 444.5045351240732 L 838.9991843441429 444.5045351240732 M 838.9991843441429 444.5045351240732 M 840.9991843441429 444.5045351240732 L 842.9991843441429 444.5045351240732 M 842.9991843441429 444.5045351240732 M 844.9991843441429 444.5045351240732 L 846.9991843441429 444.5045351240732 M 846.9991843441429 444.5045351240732 M 848.9991843441429 444.5045351240732 L 850.9991843441429 444.5045351240732 M 850.9991843441429 444.5045351240732 M 852.9991843441429 444.5045351240732 L 854.9991843441429 444.5045351240732 M 854.9991843441429 444.5045351240732 M 856.9991843441429 444.5045351240732 L 858.9991843441429 444.5045351240732 M 858.9991843441429 444.5045351240732 M 860.9991843441429 444.5045351240732 L 862.9991843441429 444.5045351240732 M 862.9991843441429 444.5045351240732 M 864.9991843441429 444.5045351240732 L 866.9991843441429 444.5045351240732 M 866.9991843441429 444.5045351240732" stroke-miterlimit="10" stroke-width="2"/></g></g></g></g><g transform="matrix(1,0,0,1,246.49273029052858,357.0045351240731)"><g transform="translate(0,0)"><g transform="translate(-249,-361.5045351240733) translate(2.507269709471416,4.500000000000227) matrix(1,0,0,1,0,0)"><g><path fill="none" stroke="#003068" d="M 250.99273029052858 361.5045351240731 M 250.99273029052858 361.5045351240731 L 252.99273029052858 361.5045351240731 M 252.99273029052858 361.5045351240731 M 254.99273029052858 361.5045351240731 L 256.9927302905286 361.5045351240731 M 256.9927302905286 361.5045351240731 M 258.9927302905286 361.5045351240731 L 260.9927302905286 361.5045351240731 M 260.9927302905286 361.5045351240731 M 262.9927302905286 361.5045351240731 L 264.9927302905286 361.5045351240731 M 264.9927302905286 361.5045351240731 M 266.9927302905286 361.5045351240731 L 268.9927302905286 361.5045351240731 M 268.9927302905286 361.5045351240731 M 270.9927302905286 361.5045351240731 L 272.9927302905286 361.5045351240731 M 272.9927302905286 361.5045351240731 M 274.9927302905286 361.5045351240731 L 276.9927302905286 361.5045351240731 M 276.9927302905286 361.5045351240731 M 278.9927302905286 361.5045351240731 L 280.9927302905286 361.5045351240731 M 280.9927302905286 361.5045351240731 M 282.9927302905286 361.5045351240731 L 284.9927302905286 361.5045351240731 M 284.9927302905286 361.5045351240731 M 286.9927302905286 361.5045351240731 L 288.9927302905286 361.5045351240731 M 288.9927302905286 361.5045351240731 M 290.9927302905286 361.5045351240731 L 292.9927302905286 361.5045351240731 M 292.9927302905286 361.5045351240731 M 294.9927302905286 361.5045351240731 L 296.9927302905286 361.5045351240731 M 296.9927302905286 361.5045351240731 M 298.9927302905286 361.5045351240731 L 300.9927302905286 361.5045351240731 M 300.9927302905286 361.5045351240731 M 302.9927302905286 361.5045351240731 L 304.9927302905286 361.5045351240731 M 304.9927302905286 361.5045351240731 M 306.9927302905286 361.5045351240731 L 308.9927302905286 361.5045351240731 M 308.9927302905286 361.5045351240731 M 310.9927302905286 361.5045351240731 L 312.9927302905286 361.5045351240731 M 312.9927302905286 361.5045351240731 M 314.9927302905286 361.5045351240731 L 316.9927302905286 361.5045351240731 M 316.9927302905286 361.5045351240731 M 318.9927302905286 361.5045351240731 L 320.9927302905286 361.5045351240731 M 320.9927302905286 361.5045351240731 M 322.9927302905286 361.5045351240731 L 324.9927302905286 361.5045351240731 M 324.9927302905286 361.5045351240731 M 326.9927302905286 361.5045351240731 L 328.9927302905286 361.5045351240731 M 328.9927302905286 361.5045351240731 M 330.9927302905286 361.5045351240731 L 332.9927302905286 361.5045351240731 M 332.9927302905286 361.5045351240731 M 334.9927302905286 361.5045351240731 L 336.9927302905286 361.5045351240731 M 336.9927302905286 361.5045351240731 M 338.9927302905286 361.5045351240731 L 340.9927302905286 361.5045351240731 M 340.9927302905286 361.5045351240731 M 342.9927302905286 361.5045351240731 L 344.9927302905286 361.5045351240731 M 344.9927302905286 361.5045351240731 M 346.9927302905286 361.5045351240731 L 348.9927302905286 361.5045351240731 M 348.9927302905286 361.5045351240731 M 350.9927302905286 361.5045351240731 L 352.9927302905286 361.5045351240731 M 352.9927302905286 361.5045351240731 M 354.9927302905286 361.5045351240731 L 356.9927302905286 361.5045351240731 M 356.9927302905286 361.5045351240731 M 358.9927302905286 361.5045351240731 L 360.9927302905286 361.5045351240731 M 360.9927302905286 361.5045351240731 M 362.9927302905286 361.5045351240731 L 364.9927302905286 361.5045351240731 M 364.9927302905286 361.5045351240731 M 366.9927302905286 361.5045351240731 L 368.9927302905286 361.5045351240731 M 368.9927302905286 361.5045351240731 M 370.9927302905286 361.5045351240731 L 372.9927302905286 361.5045351240731 M 372.9927302905286 361.5045351240731 M 374.9927302905286 361.5045351240731 L 376.9927302905286 361.5045351240731 M 376.9927302905286 361.5045351240731 M 378.9927302905286 361.5045351240731 L 380.9927302905286 361.5045351240731 M 380.9927302905286 361.5045351240731 M 382.9927302905286 361.5045351240731 L 384.9927302905286 361.5045351240731 M 384.9927302905286 361.5045351240731 M 386.9927302905286 361.5045351240731 L 388.9927302905286 361.5045351240731 M 388.9927302905286 361.5045351240731 M 390.9927302905286 361.5045351240731 L 392.9927302905286 361.5045351240731 M 392.9927302905286 361.5045351240731 M 394.9927302905286 361.5045351240731 L 396.9927302905286 361.5045351240731 M 396.9927302905286 361.5045351240731 M 398.9927302905286 361.5045351240731 L 400.9927302905286 361.5045351240731 M 400.9927302905286 361.5045351240731 M 402.9927302905286 361.5045351240731 L 404.9927302905286 361.5045351240731 M 404.9927302905286 361.5045351240731 M 406.9927302905286 361.5045351240731 L 408.9927302905286 361.5045351240731 M 408.9927302905286 361.5045351240731 M 410.9927302905286 361.5045351240731 L 412.9927302905286 361.5045351240731 M 412.9927302905286 361.5045351240731 M 414.9927302905286 361.5045351240731 L 416.9927302905286 361.5045351240731 M 416.9927302905286 361.5045351240731 M 418.9927302905286 361.5045351240731 L 420.9927302905286 361.5045351240731 M 420.9927302905286 361.5045351240731 M 422.9927302905286 361.5045351240731 L 424.9927302905286 361.5045351240731 M 424.9927302905286 361.5045351240731 M 426.9927302905286 361.5045351240731 L 428.9927302905286 361.5045351240731 M 428.9927302905286 361.5045351240731 M 430.9927302905286 361.5045351240731 L 432.9927302905286 361.5045351240731 M 432.9927302905286 361.5045351240731 M 434.9927302905286 361.5045351240731 L 436.9927302905286 361.5045351240731 M 436.9927302905286 361.5045351240731 M 438.9927302905286 361.5045351240731 L 440.9927302905286 361.5045351240731 M 440.9927302905286 361.5045351240731 M 442.9927302905286 361.5045351240731 L 444.9927302905286 361.5045351240731 M 444.9927302905286 361.5045351240731 M 446.9927302905286 361.5045351240731 L 448.9927302905286 361.5045351240731 M 448.9927302905286 361.5045351240731 M 450.9927302905286 361.5045351240731 L 452.9927302905286 361.5045351240731 M 452.9927302905286 361.5045351240731 M 454.9927302905286 361.5045351240731 L 456.9927302905286 361.5045351240731 M 456.9927302905286 361.5045351240731 M 458.9927302905286 361.5045351240731 L 460.9927302905286 361.5045351240731 M 460.9927302905286 361.5045351240731 M 462.9927302905286 361.5045351240731 L 464.9927302905286 361.5045351240731 M 464.9927302905286 361.5045351240731 M 466.9927302905286 361.5045351240731 L 468.9927302905286 361.5045351240731 M 468.9927302905286 361.5045351240731 M 470.9927302905286 361.5045351240731 L 472.9927302905286 361.5045351240731 M 472.9927302905286 361.5045351240731 M 474.9927302905286 361.5045351240731 L 476.9927302905286 361.5045351240731 M 476.9927302905286 361.5045351240731 M 478.9927302905286 361.5045351240731 L 480.9927302905286 361.5045351240731 M 480.9927302905286 361.5045351240731 M 482.9927302905286 361.5045351240731 L 484.9927302905286 361.5045351240731 M 484.9927302905286 361.5045351240731 M 486.9927302905286 361.5045351240731 L 488.9927302905286 361.5045351240731 M 488.9927302905286 361.5045351240731 M 490.9927302905286 361.5045351240731 L 492.9927302905286 361.5045351240731 M 492.9927302905286 361.5045351240731 M 494.9927302905286 361.5045351240731 L 496.9927302905286 361.5045351240731 M 496.9927302905286 361.5045351240731 M 498.9927302905286 361.5045351240731 L 500.9927302905286 361.5045351240731 M 500.9927302905286 361.5045351240731 M 502.9927302905286 361.5045351240731 L 504.9927302905286 361.5045351240731 M 504.9927302905286 361.5045351240731 M 506.9927302905286 361.5045351240731 L 508.9927302905286 361.5045351240731 M 508.9927302905286 361.5045351240731 M 510.9927302905286 361.5045351240731 L 512.9927302905286 361.5045351240731 M 512.9927302905286 361.5045351240731 M 514.9927302905286 361.5045351240731 L 516.9927302905286 361.5045351240731 M 516.9927302905286 361.5045351240731 M 518.9927302905286 361.5045351240731 L 520.9927302905286 361.5045351240731 M 520.9927302905286 361.5045351240731 M 522.9927302905286 361.5045351240731 L 524.9927302905286 361.5045351240731 M 524.9927302905286 361.5045351240731 M 526.9927302905286 361.5045351240731 L 528.9927302905286 361.5045351240731 M 528.9927302905286 361.5045351240731 M 530.9927302905286 361.5045351240731 L 532.9927302905286 361.5045351240731 M 532.9927302905286 361.5045351240731 M 534.9927302905286 361.5045351240731 L 536.9927302905286 361.5045351240731 M 536.9927302905286 361.5045351240731 M 538.9927302905286 361.5045351240731 L 540.9927302905286 361.5045351240731 M 540.9927302905286 361.5045351240731 M 542.9927302905286 361.5045351240731 L 544.9927302905286 361.5045351240731 M 544.9927302905286 361.5045351240731 M 546.9927302905286 361.5045351240731 L 548.9927302905286 361.5045351240731 M 548.9927302905286 361.5045351240731 M 550.9927302905286 361.5045351240731 L 552.9927302905286 361.5045351240731 M 552.9927302905286 361.5045351240731 M 554.9927302905286 361.5045351240731 L 556.9927302905286 361.5045351240731 M 556.9927302905286 361.5045351240731 M 558.9927302905286 361.5045351240731 L 560.9927302905286 361.5045351240731 M 560.9927302905286 361.5045351240731 M 562.9927302905286 361.5045351240731 L 564.9927302905286 361.5045351240731 M 564.9927302905286 361.5045351240731 M 566.9927302905286 361.5045351240731 L 568.9927302905286 361.5045351240731 M 568.9927302905286 361.5045351240731 M 570.9927302905286 361.5045351240731 L 572.9927302905286 361.5045351240731 M 572.9927302905286 361.5045351240731 M 574.9927302905286 361.5045351240731 L 576.9927302905286 361.5045351240731 M 576.9927302905286 361.5045351240731 M 578.9927302905286 361.5045351240731 L 580.9927302905286 361.5045351240731 M 580.9927302905286 361.5045351240731 M 582.9927302905286 361.5045351240731 L 584.9927302905286 361.5045351240731 M 584.9927302905286 361.5045351240731 M 586.9927302905286 361.5045351240731 L 588.9927302905286 361.5045351240731 M 588.9927302905286 361.5045351240731 M 590.9927302905286 361.5045351240731 L 592.9927302905286 361.5045351240731 M 592.9927302905286 361.5045351240731 M 594.9927302905286 361.5045351240731 L 596.9927302905286 361.5045351240731 M 596.9927302905286 361.5045351240731 M 598.9927302905286 361.5045351240731 L 600.9927302905286 361.5045351240731 M 600.9927302905286 361.5045351240731 M 602.9927302905286 361.5045351240731 L 604.9927302905286 361.5045351240731 M 604.9927302905286 361.5045351240731 M 606.9927302905286 361.5045351240731 L 608.9927302905286 361.5045351240731 M 608.9927302905286 361.5045351240731 M 610.9927302905286 361.5045351240731 L 612.9927302905286 361.5045351240731 M 612.9927302905286 361.5045351240731 M 614.9927302905286 361.5045351240731 L 616.9927302905286 361.5045351240731 M 616.9927302905286 361.5045351240731 M 618.9927302905286 361.5045351240731 L 620.9927302905286 361.5045351240731 M 620.9927302905286 361.5045351240731 M 622.9927302905286 361.5045351240731 L 624.9927302905286 361.5045351240731 M 624.9927302905286 361.5045351240731 M 626.9927302905286 361.5045351240731 L 628.9927302905286 361.5045351240731 M 628.9927302905286 361.5045351240731 M 630.9927302905286 361.5045351240731 L 632.9927302905286 361.5045351240731 M 632.9927302905286 361.5045351240731 M 634.9927302905286 361.5045351240731 L 636.9927302905286 361.5045351240731 M 636.9927302905286 361.5045351240731 M 638.9927302905286 361.5045351240731 L 640.9927302905286 361.5045351240731 M 640.9927302905286 361.5045351240731 M 642.9927302905286 361.5045351240731 L 644.9927302905286 361.5045351240731 M 644.9927302905286 361.5045351240731 M 646.9927302905286 361.5045351240731 L 648.9927302905286 361.5045351240731 M 648.9927302905286 361.5045351240731 M 650.9927302905286 361.5045351240731 L 652.9927302905286 361.5045351240731 M 652.9927302905286 361.5045351240731 M 654.9927302905286 361.5045351240731 L 656.9927302905286 361.5045351240731 M 656.9927302905286 361.5045351240731 M 658.9927302905286 361.5045351240731 L 660.9927302905286 361.5045351240731 M 660.9927302905286 361.5045351240731 M 662.9927302905286 361.5045351240731 L 664.9927302905286 361.5045351240731 M 664.9927302905286 361.5045351240731 M 666.9927302905286 361.5045351240731 L 668.9927302905286 361.5045351240731 M 668.9927302905286 361.5045351240731 M 670.9927302905286 361.5045351240731 L 672.9927302905286 361.5045351240731 M 672.9927302905286 361.5045351240731 M 674.9927302905286 361.5045351240731 L 676.9927302905286 361.5045351240731 M 676.9927302905286 361.5045351240731 M 678.9927302905286 361.5045351240731 L 680.9927302905286 361.5045351240731 M 680.9927302905286 361.5045351240731 M 682.9927302905286 361.5045351240731 L 684.9927302905286 361.5045351240731 M 684.9927302905286 361.5045351240731 M 686.9927302905286 361.5045351240731 L 688.9927302905286 361.5045351240731 M 688.9927302905286 361.5045351240731 M 690.9927302905286 361.5045351240731 L 692.9927302905286 361.5045351240731 M 692.9927302905286 361.5045351240731 M 694.9927302905286 361.5045351240731 L 696.9927302905286 361.5045351240731 M 696.9927302905286 361.5045351240731 M 698.9927302905286 361.5045351240731 L 700.9927302905286 361.5045351240731 M 700.9927302905286 361.5045351240731 M 702.9927302905286 361.5045351240731 L 704.9927302905286 361.5045351240731 M 704.9927302905286 361.5045351240731 M 706.9927302905286 361.5045351240731 L 708.9927302905286 361.5045351240731 M 708.9927302905286 361.5045351240731 M 710.9927302905286 361.5045351240731 L 712.9927302905286 361.5045351240731 M 712.9927302905286 361.5045351240731 M 714.9927302905286 361.5045351240731 L 716.9927302905286 361.5045351240731 M 716.9927302905286 361.5045351240731 M 718.9927302905286 361.5045351240731 L 720.9927302905286 361.5045351240731 M 720.9927302905286 361.5045351240731 M 722.9927302905286 361.5045351240731 L 724.9927302905286 361.5045351240731 M 724.9927302905286 361.5045351240731 M 726.9927302905286 361.5045351240731 L 728.9927302905286 361.5045351240731 M 728.9927302905286 361.5045351240731 M 730.9927302905286 361.5045351240731 L 732.9927302905286 361.5045351240731 M 732.9927302905286 361.5045351240731 M 734.9927302905286 361.5045351240731 L 736.9927302905286 361.5045351240731 M 736.9927302905286 361.5045351240731 M 738.9927302905286 361.5045351240731 L 740.9927302905286 361.5045351240731 M 740.9927302905286 361.5045351240731 M 742.9927302905286 361.5045351240731 L 744.9927302905286 361.5045351240731 M 744.9927302905286 361.5045351240731 M 746.9927302905286 361.5045351240731 L 748.9927302905286 361.5045351240731 M 748.9927302905286 361.5045351240731 M 750.9927302905286 361.5045351240731 L 752.9927302905286 361.5045351240731 M 752.9927302905286 361.5045351240731 M 754.9927302905286 361.5045351240731 L 756.9927302905286 361.5045351240731 M 756.9927302905286 361.5045351240731 M 758.9927302905286 361.5045351240731 L 760.9927302905286 361.5045351240731 M 760.9927302905286 361.5045351240731 M 762.9927302905286 361.5045351240731 L 764.9927302905286 361.5045351240731 M 764.9927302905286 361.5045351240731 M 766.9927302905286 361.5045351240731 L 768.9927302905286 361.5045351240731 M 768.9927302905286 361.5045351240731 M 770.9927302905286 361.5045351240731 L 772.9927302905286 361.5045351240731 M 772.9927302905286 361.5045351240731 M 774.9927302905286 361.5045351240731 L 776.9927302905286 361.5045351240731 M 776.9927302905286 361.5045351240731 M 778.9927302905286 361.5045351240731 L 780.9927302905286 361.5045351240731 M 780.9927302905286 361.5045351240731 M 782.9927302905286 361.5045351240731 L 784.9927302905286 361.5045351240731 M 784.9927302905286 361.5045351240731 M 786.9927302905286 361.5045351240731 L 788.9927302905286 361.5045351240731 M 788.9927302905286 361.5045351240731 M 790.9927302905286 361.5045351240731 L 792.9927302905286 361.5045351240731 M 792.9927302905286 361.5045351240731 M 794.9927302905286 361.5045351240731 L 796.9927302905286 361.5045351240731 M 796.9927302905286 361.5045351240731 M 798.9927302905286 361.5045351240731 L 800.9927302905286 361.5045351240731 M 800.9927302905286 361.5045351240731 M 802.9927302905286 361.5045351240731 L 804.9927302905286 361.5045351240731 M 804.9927302905286 361.5045351240731 M 806.9927302905286 361.5045351240731 L 808.9927302905286 361.5045351240731 M 808.9927302905286 361.5045351240731 M 810.9927302905286 361.5045351240731 L 812.9927302905286 361.5045351240731 M 812.9927302905286 361.5045351240731 M 814.9927302905286 361.5045351240731 L 816.9927302905286 361.5045351240731 M 816.9927302905286 361.5045351240731 M 818.9927302905286 361.5045351240731 L 820.9927302905286 361.5045351240731 M 820.9927302905286 361.5045351240731 M 822.9927302905286 361.5045351240731 L 824.9927302905286 361.5045351240731 M 824.9927302905286 361.5045351240731 M 826.9927302905286 361.5045351240731 L 828.9927302905286 361.5045351240731 M 828.9927302905286 361.5045351240731 M 830.9927302905286 361.5045351240731 L 832.9927302905286 361.5045351240731 M 832.9927302905286 361.5045351240731 M 834.9927302905286 361.5045351240731 L 836.9927302905286 361.5045351240731 M 836.9927302905286 361.5045351240731 M 838.9927302905286 361.5045351240731 L 840.9927302905286 361.5045351240731 M 840.9927302905286 361.5045351240731 M 842.9927302905286 361.5045351240731 L 844.9927302905286 361.5045351240731 M 844.9927302905286 361.5045351240731 M 846.9927302905286 361.5045351240731 L 848.9927302905286 361.5045351240731 M 848.9927302905286 361.5045351240731 M 850.9927302905286 361.5045351240731 L 852.9927302905286 361.5045351240731 M 852.9927302905286 361.5045351240731 M 854.9927302905286 361.5045351240731 L 856.9927302905286 361.50453512407313 M 856.9927302905286 361.50453512407313 M 858.9927302905286 361.50453512407313 L 860.9927302905286 361.5045351240732 M 860.9927302905286 361.5045351240732 M 862.9927302905286 361.5045351240732 L 864.9927302905286 361.50453512407324 M 864.9927302905286 361.50453512407324 M 866.9927302905286 361.50453512407324 L 868.9927302905286 361.5045351240733 M 868.9927302905286 361.5045351240733" stroke-miterlimit="10" stroke-width="2"/></g></g></g></g><g transform="scale(1,1) matrix(1,0,0,1,871,430.0045351240733) translate(2,0)"><text fill="rgb(1, 11, 20)" stroke="none" font-family="Arial" font-size="12px" font-style="normal" font-weight="normal" text-decoration="none" x="24.7392578125" y="11">терминация SSL </text><text fill="rgb(1, 11, 20)" stroke="none" font-family="Arial" font-size="12px" font-style="normal" font-weight="normal" text-decoration="none" x="44.3916015625" y="25">траффика</text></g><g transform="scale(1,1) matrix(1,0,0,1,960,201.0045351240733) translate(2,0.5)"/><g transform="scale(1,1) matrix(1,0,0,1,871,354.5045351240733) translate(2,0)"><text fill="rgb(1, 11, 20)" stroke="none" font-family="Arial" font-size="12px" font-style="normal" font-weight="normal" text-decoration="none" x="48.0126953125" y="11">файрвол</text></g><g transform="matrix(1,0,0,1,375.5,421.0045351240733)"><g transform="translate(0,0)"><g transform="translate(-386,-474.5045351240733) translate(10.5,53.5) matrix(1,0,0,1,0,0)"><g><path fill="none" stroke="#003068" d="M 380 475.5045351240733 L 450 425.5045351240733" stroke-miterlimit="10" stroke-width="2"/></g></g></g></g><g transform="matrix(1,0,0,1,445.5,421.0045351240733)"><g transform="translate(0,0)"><g transform="translate(-493,-473.5045351240733) translate(47.5,52.5) matrix(1,0,0,1,0,0)"><g><path fill="none" stroke="#003068" d="M 500 475.5045351240733 L 450 425.5045351240733" stroke-miterlimit="10" stroke-width="2"/></g></g></g></g><g transform="matrix(1,0,0,1,615.5,421.0045351240733)"><g transform="translate(0,0)"><g transform="translate(-620,-477.5045351240733) translate(4.5,56.5) matrix(1,0,0,1,0,0)"><g><path fill="none" stroke="#003068" d="M 620 475.5045351240733 L 635 425.5045351240733" stroke-miterlimit="10" stroke-width="2"/></g></g></g></g><g transform="matrix(1,0,0,1,630.5,421.0045351240733)"><g transform="translate(0,0)"><g transform="translate(-737,-478.5045351240733) translate(106.5,57.5) matrix(1,0,0,1,0,0)"><g><path fill="none" stroke="#003068" d="M 740 475.5045351240733 L 635 425.5045351240733" stroke-miterlimit="10" stroke-width="2"/></g></g></g></g><g transform="translate(0,0) matrix(1,0,0,1,280,285.5045351240733)"><g><g transform="translate(0,0) scale(1.3,0.5)"><g><g transform="scale(0.7692307692307692,2)"><path fill="#CCE0CC" stroke="none" d="M 39 0 L 91 0 L 130 15 L 130 35 L 91 50 L 39 50 L 0 35 L 0 15 L 39 0 Z"/><path fill="none" stroke="#006800" d="M 39 0 M 39 0 L 91 0 L 130 15 L 130 35 L 91 50 L 39 50 L 0 35 L 0 15 L 39 0 Z" stroke-miterlimit="10" stroke-width="2"/></g></g></g></g></g><g transform="scale(1,1) matrix(1,0,0,1,282.6,285.5045351240733) translate(8,11)"><text fill="rgb(3, 28, 0)" stroke="none" font-family="Arial" font-size="12px" font-style="normal" font-weight="normal" text-decoration="none" x="10.349218749999991" y="11">балансировщик</text><text fill="rgb(3, 28, 0)" stroke="none" font-family="Arial" font-size="12px" font-style="normal" font-weight="normal" text-decoration="none" x="31.71542968749999" y="25">backend</text></g><g transform="translate(0,0) matrix(1,0,0,1,430,285.5045351240733)"><g><g transform="translate(0,0) scale(1.3,0.5)"><g><g transform="scale(0.7692307692307692,2)"><path fill="#CCE0CC" stroke="none" d="M 39 0 L 91 0 L 130 15 L 130 35 L 91 50 L 39 50 L 0 35 L 0 15 L 39 0 Z"/><path fill="none" stroke="#006800" d="M 39 0 M 39 0 L 91 0 L 130 15 L 130 35 L 91 50 L 39 50 L 0 35 L 0 15 L 39 0 Z" stroke-miterlimit="10" stroke-width="2"/></g></g></g></g></g><g transform="scale(1,1) matrix(1,0,0,1,432.6,285.5045351240733) translate(8,11)"><text fill="rgb(3, 28, 0)" stroke="none" font-family="Arial" font-size="12px" font-style="normal" font-weight="normal" text-decoration="none" x="10.349218749999991" y="11">балансировщик</text><text fill="rgb(3, 28, 0)" stroke="none" font-family="Arial" font-size="12px" font-style="normal" font-weight="normal" text-decoration="none" x="31.71542968749999" y="25">backend</text></g><g transform="translate(0,0) matrix(1,0,0,1,580,285.5045351240733)"><g><g transform="translate(0,0) scale(1.3,0.5)"><g><g transform="scale(0.7692307692307692,2)"><path fill="#CCE0CC" stroke="none" d="M 39 0 L 91 0 L 130 15 L 130 35 L 91 50 L 39 50 L 0 35 L 0 15 L 39 0 Z"/><path fill="none" stroke="#006800" d="M 39 0 M 39 0 L 91 0 L 130 15 L 130 35 L 91 50 L 39 50 L 0 35 L 0 15 L 39 0 Z" stroke-miterlimit="10" stroke-width="2"/></g></g></g></g></g><g transform="scale(1,1) matrix(1,0,0,1,582.6,285.5045351240733) translate(8,11)"><text fill="rgb(3, 28, 0)" stroke="none" font-family="Arial" font-size="12px" font-style="normal" font-weight="normal" text-decoration="none" x="10.349218749999991" y="11">балансировщик</text><text fill="rgb(3, 28, 0)" stroke="none" font-family="Arial" font-size="12px" font-style="normal" font-weight="normal" text-decoration="none" x="31.71542968749999" y="25">backend</text></g><g transform="translate(0,0) matrix(1,0,0,1,735,285.5045351240733)"><g><g transform="translate(0,0) scale(1.3,0.5)"><g><g transform="scale(0.7692307692307692,2)"><path fill="#CCE0CC" stroke="none" d="M 39 0 L 91 0 L 130 15 L 130 35 L 91 50 L 39 50 L 0 35 L 0 15 L 39 0 Z"/><path fill="none" stroke="#006800" d="M 39 0 M 39 0 L 91 0 L 130 15 L 130 35 L 91 50 L 39 50 L 0 35 L 0 15 L 39 0 Z" stroke-miterlimit="10" stroke-width="2"/></g></g></g></g></g><g transform="scale(1,1) matrix(1,0,0,1,737.6,285.5045351240733) translate(8,11)"><text fill="rgb(3, 28, 0)" stroke="none" font-family="Arial" font-size="12px" font-style="normal" font-weight="normal" text-decoration="none" x="10.349218749999991" y="11">балансировщик</text><text fill="rgb(3, 28, 0)" stroke="none" font-family="Arial" font-size="12px" font-style="normal" font-weight="normal" text-decoration="none" x="31.71542968749999" y="25">backend</text></g><g transform="matrix(1,0,0,1,340.5,331.0045351240733)"><g transform="translate(0,0)"><g transform="translate(-449,-376.5045351240733) translate(108.5,45.5) matrix(1,0,0,1,0,0)"><g><path fill="none" stroke="#003068" d="M 450 375.5045351240733 L 345 335.5045351240733" stroke-miterlimit="10" stroke-width="2"/></g></g></g></g><g transform="matrix(1,0,0,1,445.5,331.0045351240733)"><g transform="translate(0,0)"><g transform="translate(-452,-375.5045351240733) translate(6.5,44.5) matrix(1,0,0,1,0,0)"><g><path fill="none" stroke="#003068" d="M 450 375.5045351240733 L 495 335.5045351240733" stroke-miterlimit="10" stroke-width="2"/></g></g></g></g><g transform="matrix(1,0,0,1,445.5,331.0045351240733)"><g transform="translate(0,0)"><g transform="translate(-450,-376.5045351240733) translate(4.5,45.5) matrix(1,0,0,1,0,0)"><g><path fill="none" stroke="#003068" d="M 450 375.5045351240733 L 645 335.5045351240733" stroke-miterlimit="10" stroke-width="2"/></g></g></g></g><g transform="matrix(1,0,0,1,445.5,331.0045351240733)"><g transform="translate(0,0)"><g transform="translate(-452,-372.5045351240733) translate(6.5,41.5) matrix(1,0,0,1,0,0)"><g><path fill="none" stroke="#003068" d="M 450 375.5045351240733 L 800 335.5045351240733" stroke-miterlimit="10" stroke-width="2"/></g></g></g></g><g transform="matrix(1,0,0,1,340.5,331.0045351240733)"><g transform="translate(0,0)"><g transform="translate(-631,-378.5045351240733) translate(290.5,47.5) matrix(1,0,0,1,0,0)"><g><path fill="none" stroke="#003068" d="M 635 375.5045351240733 L 345 335.5045351240733" stroke-miterlimit="10" stroke-width="2"/></g></g></g></g><g transform="matrix(1,0,0,1,490.5,331.0045351240733)"><g transform="translate(0,0)"><g transform="translate(-639,-375.5045351240733) translate(148.5,44.5) matrix(1,0,0,1,0,0)"><g><path fill="none" stroke="#003068" d="M 635 375.5045351240733 L 495 335.5045351240733" stroke-miterlimit="10" stroke-width="2"/></g></g></g></g><g transform="matrix(1,0,0,1,630.5,331.0045351240733)"><g transform="translate(0,0)"><g transform="translate(-630,-372.5045351240733) translate(-0.5,41.5) matrix(1,0,0,1,0,0)"><g><path fill="none" stroke="#003068" d="M 635 375.5045351240733 L 645 335.5045351240733" stroke-miterlimit="10" stroke-width="2"/></g></g></g></g><g transform="matrix(1,0,0,1,630.5,331.0045351240733)"><g transform="translate(0,0)"><g transform="translate(-635,-377.5045351240733) translate(4.5,46.5) matrix(1,0,0,1,0,0)"><g><path fill="none" stroke="#003068" d="M 635 375.5045351240733 L 800 335.5045351240733" stroke-miterlimit="10" stroke-width="2"/></g></g></g></g><g transform="translate(0,0) matrix(1,0,0,1,265,215.0045351240733)"><g><g transform="translate(0,0) scale(1,0.375)"><g><path fill="none" stroke="none" d="M 10 0 L 90 0 Q 100 0 100 10 L 100 90 Q 100 100 90 100 L 10 100 Q 0 100 0 90 L 0 10 Q 0 0 10 0 Z"/><g transform="scale(1,2.6666666666666665)"><path fill="#CCD5E1" stroke="none" d="M 10 0 L 90 0 Q 100 0 100 10 L 100 27.5 Q 100 37.5 90 37.5 L 10 37.5 Q 0 37.5 0 27.5 L 0 10 Q 0 0 10 0 Z"/><path fill="none" stroke="#003068" d="M 10 0 M 10 0 L 90 0 Q 100 0 100 10 L 100 27.5 Q 100 37.5 90 37.5 L 10 37.5 Q 0 37.5 0 27.5 L 0 10 Q 0 0 10 0 Z" stroke-miterlimit="10" stroke-width="2"/></g></g></g></g></g><g transform="scale(1,1) matrix(1,0,0,1,267,215.0045351240733) translate(8,11.75)"><text fill="rgb(1, 11, 20)" stroke="none" font-family="Arial" font-size="12px" font-style="normal" font-weight="normal" text-decoration="none" x="30.3291015625" y="11">API</text></g><g transform="translate(0,0) matrix(1,0,0,1,385,215.0045351240733)"><g><g transform="translate(0,0) scale(1,0.375)"><g><path fill="none" stroke="none" d="M 10 0 L 90 0 Q 100 0 100 10 L 100 90 Q 100 100 90 100 L 10 100 Q 0 100 0 90 L 0 10 Q 0 0 10 0 Z"/><g transform="scale(1,2.6666666666666665)"><path fill="#CCD5E1" stroke="none" d="M 10 0 L 90 0 Q 100 0 100 10 L 100 27.5 Q 100 37.5 90 37.5 L 10 37.5 Q 0 37.5 0 27.5 L 0 10 Q 0 0 10 0 Z"/><path fill="none" stroke="#003068" d="M 10 0 M 10 0 L 90 0 Q 100 0 100 10 L 100 27.5 Q 100 37.5 90 37.5 L 10 37.5 Q 0 37.5 0 27.5 L 0 10 Q 0 0 10 0 Z" stroke-miterlimit="10" stroke-width="2"/></g></g></g></g></g><g transform="scale(1,1) matrix(1,0,0,1,387,215.0045351240733) translate(8,11.75)"><text fill="rgb(1, 11, 20)" stroke="none" font-family="Arial" font-size="12px" font-style="normal" font-weight="normal" text-decoration="none" x="30.3291015625" y="11">API</text></g><g transform="translate(0,0) matrix(1,0,0,1,505,215.0045351240733)"><g><g transform="translate(0,0) scale(1,0.375)"><g><path fill="none" stroke="none" d="M 10 0 L 90 0 Q 100 0 100 10 L 100 90 Q 100 100 90 100 L 10 100 Q 0 100 0 90 L 0 10 Q 0 0 10 0 Z"/><g transform="scale(1,2.6666666666666665)"><path fill="#CCD5E1" stroke="none" d="M 10 0 L 90 0 Q 100 0 100 10 L 100 27.5 Q 100 37.5 90 37.5 L 10 37.5 Q 0 37.5 0 27.5 L 0 10 Q 0 0 10 0 Z"/><path fill="none" stroke="#003068" d="M 10 0 M 10 0 L 90 0 Q 100 0 100 10 L 100 27.5 Q 100 37.5 90 37.5 L 10 37.5 Q 0 37.5 0 27.5 L 0 10 Q 0 0 10 0 Z" stroke-miterlimit="10" stroke-width="2"/></g></g></g></g></g><g transform="scale(1,1) matrix(1,0,0,1,507,215.0045351240733) translate(8,11.75)"><text fill="rgb(1, 11, 20)" stroke="none" font-family="Arial" font-size="12px" font-style="normal" font-weight="normal" text-decoration="none" x="30.3291015625" y="11">API</text></g><g transform="translate(0,0) matrix(1,0,0,1,625,215.0045351240733)"><g><g transform="translate(0,0) scale(1,0.375)"><g><path fill="none" stroke="none" d="M 10 0 L 90 0 Q 100 0 100 10 L 100 90 Q 100 100 90 100 L 10 100 Q 0 100 0 90 L 0 10 Q 0 0 10 0 Z"/><g transform="scale(1,2.6666666666666665)"><path fill="#CCD5E1" stroke="none" d="M 10 0 L 90 0 Q 100 0 100 10 L 100 27.5 Q 100 37.5 90 37.5 L 10 37.5 Q 0 37.5 0 27.5 L 0 10 Q 0 0 10 0 Z"/><path fill="none" stroke="#003068" d="M 10 0 M 10 0 L 90 0 Q 100 0 100 10 L 100 27.5 Q 100 37.5 90 37.5 L 10 37.5 Q 0 37.5 0 27.5 L 0 10 Q 0 0 10 0 Z" stroke-miterlimit="10" stroke-width="2"/></g></g></g></g></g><g transform="scale(1,1) matrix(1,0,0,1,627,215.0045351240733) translate(8,11.75)"><text fill="rgb(1, 11, 20)" stroke="none" font-family="Arial" font-size="12px" font-style="normal" font-weight="normal" text-decoration="none" x="30.3291015625" y="11">API</text></g><g transform="translate(0,0) matrix(1,0,0,1,745,215.0045351240733)"><g><g transform="translate(0,0) scale(1,0.375)"><g><path fill="none" stroke="none" d="M 10 0 L 90 0 Q 100 0 100 10 L 100 90 Q 100 100 90 100 L 10 100 Q 0 100 0 90 L 0 10 Q 0 0 10 0 Z"/><g transform="scale(1,2.6666666666666665)"><path fill="#CCD5E1" stroke="none" d="M 10 0 L 90 0 Q 100 0 100 10 L 100 27.5 Q 100 37.5 90 37.5 L 10 37.5 Q 0 37.5 0 27.5 L 0 10 Q 0 0 10 0 Z"/><path fill="none" stroke="#003068" d="M 10 0 M 10 0 L 90 0 Q 100 0 100 10 L 100 27.5 Q 100 37.5 90 37.5 L 10 37.5 Q 0 37.5 0 27.5 L 0 10 Q 0 0 10 0 Z" stroke-miterlimit="10" stroke-width="2"/></g></g></g></g></g><g transform="scale(1,1) matrix(1,0,0,1,747,215.0045351240733) translate(8,11.75)"><text fill="rgb(1, 11, 20)" stroke="none" font-family="Arial" font-size="12px" font-style="normal" font-weight="normal" text-decoration="none" x="30.3291015625" y="11">API</text></g><g transform="translate(0,0) matrix(1,0,0,1,265,155.5045351240733)"><g><g transform="translate(0,0) scale(1,0.375)"><g><path fill="none" stroke="none" d="M 10 0 L 90 0 Q 100 0 100 10 L 100 90 Q 100 100 90 100 L 10 100 Q 0 100 0 90 L 0 10 Q 0 0 10 0 Z"/><g transform="scale(1,2.6666666666666665)"><path fill="#CCD5E1" stroke="none" d="M 10 0 L 90 0 Q 100 0 100 10 L 100 27.5 Q 100 37.5 90 37.5 L 10 37.5 Q 0 37.5 0 27.5 L 0 10 Q 0 0 10 0 Z"/><path fill="none" stroke="#003068" d="M 10 0 M 10 0 L 90 0 Q 100 0 100 10 L 100 27.5 Q 100 37.5 90 37.5 L 10 37.5 Q 0 37.5 0 27.5 L 0 10 Q 0 0 10 0 Z" stroke-miterlimit="10" stroke-width="2"/></g></g></g></g></g><g transform="scale(1,1) matrix(1,0,0,1,267,155.5045351240733) translate(8,11.75)"><text fill="rgb(1, 11, 20)" stroke="none" font-family="Arial" font-size="12px" font-style="normal" font-weight="normal" text-decoration="none" x="30.3291015625" y="11">API</text></g><g transform="translate(0,0) matrix(1,0,0,1,385,155.5045351240733)"><g><g transform="translate(0,0) scale(1,0.375)"><g><path fill="none" stroke="none" d="M 10 0 L 90 0 Q 100 0 100 10 L 100 90 Q 100 100 90 100 L 10 100 Q 0 100 0 90 L 0 10 Q 0 0 10 0 Z"/><g transform="scale(1,2.6666666666666665)"><path fill="#CCD5E1" stroke="none" d="M 10 0 L 90 0 Q 100 0 100 10 L 100 27.5 Q 100 37.5 90 37.5 L 10 37.5 Q 0 37.5 0 27.5 L 0 10 Q 0 0 10 0 Z"/><path fill="none" stroke="#003068" d="M 10 0 M 10 0 L 90 0 Q 100 0 100 10 L 100 27.5 Q 100 37.5 90 37.5 L 10 37.5 Q 0 37.5 0 27.5 L 0 10 Q 0 0 10 0 Z" stroke-miterlimit="10" stroke-width="2"/></g></g></g></g></g><g transform="scale(1,1) matrix(1,0,0,1,387,155.5045351240733) translate(8,11.75)"><text fill="rgb(1, 11, 20)" stroke="none" font-family="Arial" font-size="12px" font-style="normal" font-weight="normal" text-decoration="none" x="30.3291015625" y="11">API</text></g><g transform="translate(0,0) matrix(1,0,0,1,505,155.5045351240733)"><g><g transform="translate(0,0) scale(1,0.375)"><g><path fill="none" stroke="none" d="M 10 0 L 90 0 Q 100 0 100 10 L 100 90 Q 100 100 90 100 L 10 100 Q 0 100 0 90 L 0 10 Q 0 0 10 0 Z"/><g transform="scale(1,2.6666666666666665)"><path fill="#CCD5E1" stroke="none" d="M 10 0 L 90 0 Q 100 0 100 10 L 100 27.5 Q 100 37.5 90 37.5 L 10 37.5 Q 0 37.5 0 27.5 L 0 10 Q 0 0 10 0 Z"/><path fill="none" stroke="#003068" d="M 10 0 M 10 0 L 90 0 Q 100 0 100 10 L 100 27.5 Q 100 37.5 90 37.5 L 10 37.5 Q 0 37.5 0 27.5 L 0 10 Q 0 0 10 0 Z" stroke-miterlimit="10" stroke-width="2"/></g></g></g></g></g><g transform="scale(1,1) matrix(1,0,0,1,507,155.5045351240733) translate(8,11.75)"><text fill="rgb(1, 11, 20)" stroke="none" font-family="Arial" font-size="12px" font-style="normal" font-weight="normal" text-decoration="none" x="30.3291015625" y="11">API</text></g><g transform="translate(0,0) matrix(1,0,0,1,625,155.5045351240733)"><g><g transform="translate(0,0) scale(1,0.375)"><g><path fill="none" stroke="none" d="M 10 0 L 90 0 Q 100 0 100 10 L 100 90 Q 100 100 90 100 L 10 100 Q 0 100 0 90 L 0 10 Q 0 0 10 0 Z"/><g transform="scale(1,2.6666666666666665)"><path fill="#CCD5E1" stroke="none" d="M 10 0 L 90 0 Q 100 0 100 10 L 100 27.5 Q 100 37.5 90 37.5 L 10 37.5 Q 0 37.5 0 27.5 L 0 10 Q 0 0 10 0 Z"/><path fill="none" stroke="#003068" d="M 10 0 M 10 0 L 90 0 Q 100 0 100 10 L 100 27.5 Q 100 37.5 90 37.5 L 10 37.5 Q 0 37.5 0 27.5 L 0 10 Q 0 0 10 0 Z" stroke-miterlimit="10" stroke-width="2"/></g></g></g></g></g><g transform="scale(1,1) matrix(1,0,0,1,627,155.5045351240733) translate(8,11.75)"><text fill="rgb(1, 11, 20)" stroke="none" font-family="Arial" font-size="12px" font-style="normal" font-weight="normal" text-decoration="none" x="30.3291015625" y="11">API</text></g><g transform="translate(0,0) matrix(1,0,0,1,745,155.5045351240733)"><g><g transform="translate(0,0) scale(1,0.375)"><g><path fill="none" stroke="none" d="M 10 0 L 90 0 Q 100 0 100 10 L 100 90 Q 100 100 90 100 L 10 100 Q 0 100 0 90 L 0 10 Q 0 0 10 0 Z"/><g transform="scale(1,2.6666666666666665)"><path fill="#CCD5E1" stroke="none" d="M 10 0 L 90 0 Q 100 0 100 10 L 100 27.5 Q 100 37.5 90 37.5 L 10 37.5 Q 0 37.5 0 27.5 L 0 10 Q 0 0 10 0 Z"/><path fill="none" stroke="#003068" d="M 10 0 M 10 0 L 90 0 Q 100 0 100 10 L 100 27.5 Q 100 37.5 90 37.5 L 10 37.5 Q 0 37.5 0 27.5 L 0 10 Q 0 0 10 0 Z" stroke-miterlimit="10" stroke-width="2"/></g></g></g></g></g><g transform="scale(1,1) matrix(1,0,0,1,747,155.5045351240733) translate(8,11.75)"><text fill="rgb(1, 11, 20)" stroke="none" font-family="Arial" font-size="12px" font-style="normal" font-weight="normal" text-decoration="none" x="30.3291015625" y="11">API</text></g><g transform="translate(0,0) matrix(1,0,0,1,160,118.0045351240733)"><g><g transform="translate(0,0) scale(0.75,0.75)"><g><g transform="scale(1.3333333333333333,1.3333333333333333)"><path fill="#e06666" stroke="none" d="M 75 0 L 75 65.625 Q 75 75 37.5 75 Q 0 75 0 65.625 L 0 0 Q 0 -9.375 37.5 -9.375 Q 75 -9.375 75 0 Q 75 9.375 37.5 9.375 Q 0 9.375 0 0"/><path fill="none" stroke="#cc0000" d="M 75 0 M 75 0 L 75 65.625 Q 75 75 37.5 75 Q 0 75 0 65.625 L 0 0 Q 0 -9.375 37.5 -9.375 Q 75 -9.375 75 0 Q 75 9.375 37.5 9.375 Q 0 9.375 0 0" stroke-miterlimit="10" stroke-width="2"/></g></g></g></g></g><g transform="scale(1,1) matrix(1,0,0,1,162,118.0045351240733) translate(8,30.5)"><text fill="rgb(3, 28, 0)" stroke="none" font-family="Arial" font-size="12px" font-style="normal" font-weight="normal" text-decoration="none" x="12.16015625" y="11">Redis</text></g><g transform="translate(0,0) matrix(1,0,0,1,885,118.0045351240733)"><g><g transform="translate(0,0) scale(0.75,0.75)"><g><g transform="scale(1.3333333333333333,1.3333333333333333)"><path fill="#CCE0CC" stroke="none" d="M 75 0 L 75 65.625 Q 75 75 37.5 75 Q 0 75 0 65.625 L 0 0 Q 0 -9.375 37.5 -9.375 Q 75 -9.375 75 0 Q 75 9.375 37.5 9.375 Q 0 9.375 0 0"/><path fill="none" stroke="#006800" d="M 75 0 M 75 0 L 75 65.625 Q 75 75 37.5 75 Q 0 75 0 65.625 L 0 0 Q 0 -9.375 37.5 -9.375 Q 75 -9.375 75 0 Q 75 9.375 37.5 9.375 Q 0 9.375 0 0" stroke-miterlimit="10" stroke-width="2"/></g></g></g></g></g><g transform="scale(1,1) matrix(1,0,0,1,887,118.0045351240733) translate(8,30.5)"><text fill="rgb(3, 28, 0)" stroke="none" font-family="Arial" font-size="12px" font-style="normal" font-weight="normal" text-decoration="none" x="0.8193359375" y="11">MongoDB</text></g><g transform="translate(0,0) matrix(1,0,0,1,885,25.5045351240733)"><g><g transform="translate(0,0) scale(0.75,0.75)"><g><g transform="scale(1.3333333333333333,1.3333333333333333)"><path fill="#CCE0CC" stroke="none" d="M 75 0 L 75 65.625 Q 75 75 37.5 75 Q 0 75 0 65.625 L 0 0 Q 0 -9.375 37.5 -9.375 Q 75 -9.375 75 0 Q 75 9.375 37.5 9.375 Q 0 9.375 0 0"/><path fill="none" stroke="#006800" d="M 75 0 M 75 0 L 75 65.625 Q 75 75 37.5 75 Q 0 75 0 65.625 L 0 0 Q 0 -9.375 37.5 -9.375 Q 75 -9.375 75 0 Q 75 9.375 37.5 9.375 Q 0 9.375 0 0" stroke-miterlimit="10" stroke-width="2"/></g></g></g></g></g><g transform="scale(1,1) matrix(1,0,0,1,887,25.5045351240733) translate(8,30.5)"><text fill="rgb(3, 28, 0)" stroke="none" font-family="Arial" font-size="12px" font-style="normal" font-weight="normal" text-decoration="none" x="0.8193359375" y="11">MongoDB</text></g><g transform="translate(0,0) matrix(1,0,0,1,265,63.0045351240733)"><g><g transform="translate(0,0) scale(1,0.375)"><g><path fill="none" stroke="none" d="M 10 0 L 90 0 Q 100 0 100 10 L 100 90 Q 100 100 90 100 L 10 100 Q 0 100 0 90 L 0 10 Q 0 0 10 0 Z"/><g transform="scale(1,2.6666666666666665)"><path fill="#f1c232" stroke="none" d="M 10 0 L 90 0 Q 100 0 100 10 L 100 27.5 Q 100 37.5 90 37.5 L 10 37.5 Q 0 37.5 0 27.5 L 0 10 Q 0 0 10 0 Z"/><path fill="none" stroke="#7f6000" d="M 10 0 M 10 0 L 90 0 Q 100 0 100 10 L 100 27.5 Q 100 37.5 90 37.5 L 10 37.5 Q 0 37.5 0 27.5 L 0 10 Q 0 0 10 0 Z" stroke-miterlimit="10" stroke-width="2"/></g></g></g></g></g><g transform="scale(1,1) matrix(1,0,0,1,267,63.0045351240733) translate(8,11.75)"><text fill="rgb(1, 11, 20)" stroke="none" font-family="Arial" font-size="12px" font-style="normal" font-weight="normal" text-decoration="none" x="12.3173828125" y="11">Conventer</text></g><g transform="translate(0,0) matrix(1,0,0,1,380,63.0045351240733)"><g><g transform="translate(0,0) scale(1,0.375)"><g><path fill="none" stroke="none" d="M 10 0 L 90 0 Q 100 0 100 10 L 100 90 Q 100 100 90 100 L 10 100 Q 0 100 0 90 L 0 10 Q 0 0 10 0 Z"/><g transform="scale(1,2.6666666666666665)"><path fill="#f1c232" stroke="none" d="M 10 0 L 90 0 Q 100 0 100 10 L 100 27.5 Q 100 37.5 90 37.5 L 10 37.5 Q 0 37.5 0 27.5 L 0 10 Q 0 0 10 0 Z"/><path fill="none" stroke="#7f6000" d="M 10 0 M 10 0 L 90 0 Q 100 0 100 10 L 100 27.5 Q 100 37.5 90 37.5 L 10 37.5 Q 0 37.5 0 27.5 L 0 10 Q 0 0 10 0 Z" stroke-miterlimit="10" stroke-width="2"/></g></g></g></g></g><g transform="scale(1,1) matrix(1,0,0,1,382,63.0045351240733) translate(8,11.75)"><text fill="rgb(1, 11, 20)" stroke="none" font-family="Arial" font-size="12px" font-style="normal" font-weight="normal" text-decoration="none" x="12.3173828125" y="11">Conventer</text></g><g transform="translate(0,0) matrix(1,0,0,1,490,63.0045351240733)"><g><g transform="translate(0,0) scale(1,0.375)"><g><path fill="none" stroke="none" d="M 10 0 L 90 0 Q 100 0 100 10 L 100 90 Q 100 100 90 100 L 10 100 Q 0 100 0 90 L 0 10 Q 0 0 10 0 Z"/><g transform="scale(1,2.6666666666666665)"><path fill="#f1c232" stroke="none" d="M 10 0 L 90 0 Q 100 0 100 10 L 100 27.5 Q 100 37.5 90 37.5 L 10 37.5 Q 0 37.5 0 27.5 L 0 10 Q 0 0 10 0 Z"/><path fill="none" stroke="#7f6000" d="M 10 0 M 10 0 L 90 0 Q 100 0 100 10 L 100 27.5 Q 100 37.5 90 37.5 L 10 37.5 Q 0 37.5 0 27.5 L 0 10 Q 0 0 10 0 Z" stroke-miterlimit="10" stroke-width="2"/></g></g></g></g></g><g transform="scale(1,1) matrix(1,0,0,1,492,63.0045351240733) translate(8,11.75)"><text fill="rgb(1, 11, 20)" stroke="none" font-family="Arial" font-size="12px" font-style="normal" font-weight="normal" text-decoration="none" x="12.3173828125" y="11">Conventer</text></g><g transform="translate(0,0) matrix(1,0,0,1,600,63.0045351240733)"><g><g transform="translate(0,0) scale(1,0.375)"><g><path fill="none" stroke="none" d="M 10 0 L 90 0 Q 100 0 100 10 L 100 90 Q 100 100 90 100 L 10 100 Q 0 100 0 90 L 0 10 Q 0 0 10 0 Z"/><g transform="scale(1,2.6666666666666665)"><path fill="#f1c232" stroke="none" d="M 10 0 L 90 0 Q 100 0 100 10 L 100 27.5 Q 100 37.5 90 37.5 L 10 37.5 Q 0 37.5 0 27.5 L 0 10 Q 0 0 10 0 Z"/><path fill="none" stroke="#7f6000" d="M 10 0 M 10 0 L 90 0 Q 100 0 100 10 L 100 27.5 Q 100 37.5 90 37.5 L 10 37.5 Q 0 37.5 0 27.5 L 0 10 Q 0 0 10 0 Z" stroke-miterlimit="10" stroke-width="2"/></g></g></g></g></g><g transform="scale(1,1) matrix(1,0,0,1,602,63.0045351240733) translate(8,11.75)"><text fill="rgb(1, 11, 20)" stroke="none" font-family="Arial" font-size="12px" font-style="normal" font-weight="normal" text-decoration="none" x="12.3173828125" y="11">Conventer</text></g><g transform="matrix(1,0,0,1,230.5,77.2545351240733)"><g transform="translate(0,0)"><g transform="translate(-269,-81.5045351240733) translate(38.5,4.25) matrix(1,0,0,1,0,0)"><g><path fill="none" stroke="#003068" d="M 265 81.7545351240733 L 235 155.5045351240733" stroke-miterlimit="10" stroke-width="2"/></g></g></g></g><g transform="matrix(1,0,0,1,230.5,77.2545351240733)"><g transform="translate(0,0)"><g transform="translate(-381,-80.5045351240733) translate(150.5,3.25) matrix(1,0,0,1,0,0)"><g><path fill="none" stroke="#003068" d="M 380 81.7545351240733 L 235 155.5045351240733" stroke-miterlimit="10" stroke-width="2"/></g></g></g></g><g transform="matrix(1,0,0,1,230.5,77.2545351240733)"><g transform="translate(0,0)"><g transform="translate(-493,-78.5045351240733) translate(262.5,1.25) matrix(1,0,0,1,0,0)"><g><path fill="none" stroke="#003068" d="M 490 81.7545351240733 L 235 155.5045351240733" stroke-miterlimit="10" stroke-width="2"/></g></g></g></g><g transform="matrix(1,0,0,1,230.5,77.2545351240733)"><g transform="translate(0,0)"><g transform="translate(-600,-83.5045351240733) translate(369.5,6.25) matrix(1,0,0,1,0,0)"><g><path fill="none" stroke="#003068" d="M 600 81.7545351240733 L 235 155.5045351240733" stroke-miterlimit="10" stroke-width="2"/></g></g></g></g><g transform="matrix(1,0,0,1,230.5,151.0045351240733)"><g transform="translate(0,0)"><g transform="translate(-191,-157.5045351240733) translate(-39.5,6.5) matrix(1,0,0,1,0,0)"><g><path fill="none" stroke="#003068" d="M 235 155.5045351240733 L 265 174.2545351240733" stroke-miterlimit="10" stroke-width="2"/></g></g></g></g><g transform="matrix(1,0,0,1,230.5,151.0045351240733)"><g transform="translate(0,0)"><g transform="translate(-196,-162.5045351240733) translate(-34.5,11.5) matrix(1,0,0,1,0,0)"><g><path fill="none" stroke="#003068" d="M 235 155.5045351240733 L 265 233.7545351240733" stroke-miterlimit="10" stroke-width="2"/></g></g></g></g><g transform="matrix(1,0,0,1,840.5,151.0045351240733)"><g transform="translate(0,0)"><g transform="translate(-881,-153.5045351240733) translate(40.5,2.5) matrix(1,0,0,1,0,0)"><g><path fill="none" stroke="#003068" d="M 885 155.5045351240733 L 845 233.7545351240733" stroke-miterlimit="10" stroke-width="2"/></g></g></g></g><g transform="matrix(1,0,0,1,840.5,58.5045351240733)"><g transform="translate(0,0)"><g transform="translate(-886,-60.5045351240733) translate(45.5,2) matrix(1,0,0,1,0,0)"><g><path fill="none" stroke="#003068" d="M 885 63.0045351240733 L 845 233.7545351240733" stroke-miterlimit="10" stroke-width="2"/></g></g></g></g><g transform="matrix(1,0,0,1,840.5,58.5045351240733)"><g transform="translate(0,0)"><g transform="translate(-840,-172.5045351240733) translate(-0.5,114) matrix(1,0,0,1,0,0)"><g><path fill="none" stroke="#003068" d="M 845 174.2545351240733 L 885 63.0045351240733" stroke-miterlimit="10" stroke-width="2"/></g></g></g></g><g transform="matrix(1,0,0,1,840.5,151.0045351240733)"><g transform="translate(0,0)"><g transform="translate(-847,-174.5045351240733) translate(6.5,23.5) matrix(1,0,0,1,0,0)"><g><path fill="none" stroke="#003068" d="M 845 174.2545351240733 L 885 155.5045351240733" stroke-miterlimit="10" stroke-width="2"/></g></g></g></g><g transform="matrix(1,0,0,1,310.5,248.0045351240733)"><g transform="translate(0,0)"><g transform="translate(-342,-290.5045351240733) translate(31.5,42.5) matrix(1,0,0,1,0,0)"><g><path fill="none" stroke="#003068" d="M 345 285.5045351240733 L 315 252.5045351240733" stroke-miterlimit="10" stroke-width="2"/></g></g></g></g><g transform="matrix(1,0,0,1,340.5,248.0045351240733)"><g transform="translate(0,0)"><g transform="translate(-344,-285.5045351240733) translate(3.5,37.5) matrix(1,0,0,1,0,0)"><g><path fill="none" stroke="#003068" d="M 345 285.5045351240733 L 435 252.5045351240733" stroke-miterlimit="10" stroke-width="2"/></g></g></g></g><g transform="matrix(1,0,0,1,340.5,248.0045351240733)"><g transform="translate(0,0)"><g transform="translate(-343,-282.5045351240733) translate(2.5,34.5) matrix(1,0,0,1,0,0)"><g><path fill="none" stroke="#003068" d="M 345 285.5045351240733 L 555 252.5045351240733" stroke-miterlimit="10" stroke-width="2"/></g></g></g></g><g transform="matrix(1,0,0,1,340.5,248.0045351240733)"><g transform="translate(0,0)"><g transform="translate(-346,-287.5045351240733) translate(5.5,39.5) matrix(1,0,0,1,0,0)"><g><path fill="none" stroke="#003068" d="M 345 285.5045351240733 L 675 252.5045351240733" stroke-miterlimit="10" stroke-width="2"/></g></g></g></g><g transform="matrix(1,0,0,1,340.5,248.0045351240733)"><g transform="translate(0,0)"><g transform="translate(-345,-289.5045351240733) translate(4.5,41.5) matrix(1,0,0,1,0,0)"><g><path fill="none" stroke="#003068" d="M 345 285.5045351240733 L 803 252.5045351240733" stroke-miterlimit="10" stroke-width="2"/></g></g></g></g><g transform="matrix(1,0,0,1,310.5,188.5045351240733)"><g transform="translate(0,0)"><g transform="translate(-343,-289.5045351240733) translate(32.5,101) matrix(1,0,0,1,0,0)"><g><path fill="none" stroke="#003068" d="M 345 285.5045351240733 L 315 193.0045351240733" stroke-miterlimit="10" stroke-width="2"/></g></g></g></g><g transform="matrix(1,0,0,1,340.5,188.5045351240733)"><g transform="translate(0,0)"><g transform="translate(-349,-280.5045351240733) translate(8.5,92) matrix(1,0,0,1,0,0)"><g><path fill="none" stroke="#003068" d="M 345 285.5045351240733 L 435 193.0045351240733" stroke-miterlimit="10" stroke-width="2"/></g></g></g></g><g transform="matrix(1,0,0,1,340.5,188.5045351240733)"><g transform="translate(0,0)"><g transform="translate(-344,-287.5045351240733) translate(3.5,99) matrix(1,0,0,1,0,0)"><g><path fill="none" stroke="#003068" d="M 345 285.5045351240733 L 555 193.0045351240733" stroke-miterlimit="10" stroke-width="2"/></g></g></g></g><g transform="matrix(1,0,0,1,340.5,188.5045351240733)"><g transform="translate(0,0)"><g transform="translate(-344,-286.5045351240733) translate(3.5,98) matrix(1,0,0,1,0,0)"><g><path fill="none" stroke="#003068" d="M 345 285.5045351240733 L 675 193.0045351240733" stroke-miterlimit="10" stroke-width="2"/></g></g></g></g><g transform="matrix(1,0,0,1,340.5,188.5045351240733)"><g transform="translate(0,0)"><g transform="translate(-344,-288.5045351240733) translate(3.5,100) matrix(1,0,0,1,0,0)"><g><path fill="none" stroke="#003068" d="M 345 285.5045351240733 L 795 193.0045351240733" stroke-miterlimit="10" stroke-width="2"/></g></g></g></g><g transform="translate(0,0) matrix(1,0,0,1,0,140.0045351240733)"><g><g transform="translate(0,0) scale(1,0.75)"><g><g transform="scale(1,1.3333333333333333)"><path fill="#E2D8CC" stroke="none" d="M 100 0 L 100 65.625 Q 100 75 50 75 Q 0 75 0 65.625 L 0 0 Q 0 -9.375 50 -9.375 Q 100 -9.375 100 0"/><path fill="none" stroke="#6A3C00" d="M 100 0 M 100 0 L 100 65.625 Q 100 75 50 75 Q 0 75 0 65.625 L 0 0 Q 0 -9.375 50 -9.375 Q 100 -9.375 100 0" stroke-miterlimit="10" stroke-width="2"/></g></g><g><g transform="scale(1,1.3333333333333333)"><path fill="rgb(0,0,0)" stroke="none" d="M 0 0 Q 0 9.375 50 9.375 Q 100 9.375 100 0 M 0 4.6875 Q 0 14.0625 50 14.0625 Q 100 14.0625 100 4.6875 M 0 9.375 Q 0 18.75 50 18.75 Q 100 18.75 100 9.375" fill-opacity="0"/><path fill="none" stroke="#6A3C00" d="M 0 0 M 0 0 Q 0 9.375 50 9.375 Q 100 9.375 100 0 M 0 4.6875 Q 0 14.0625 50 14.0625 Q 100 14.0625 100 4.6875 M 0 9.375 Q 0 18.75 50 18.75 Q 100 18.75 100 9.375" stroke-miterlimit="10"/></g></g></g></g></g><g transform="scale(1,1) matrix(1,0,0,1,2,140.0045351240733) translate(8,23.5)"><text fill="rgb(27, 16, 0)" stroke="none" font-family="Arial" font-size="12px" font-style="normal" font-weight="normal" text-decoration="none" x="10.2783203125" y="11">Облачное </text><text fill="rgb(27, 16, 0)" stroke="none" font-family="Arial" font-size="12px" font-style="normal" font-weight="normal" text-decoration="none" x="8.53515625" y="25">хранилище</text></g><g transform="matrix(1,0,0,1,132.49999999999994,0)"><g transform="translate(0,0)"><g transform="translate(-329,-361.5045351240733) translate(196.50000000000006,361.5045351240733) matrix(1,0,0,1,0,0)"><g><path fill="none" stroke="#003068" d="M 137 445.5045351240733 M 137 445.5045351240733 L 137 443.5045351240733 M 137 443.5045351240733 M 137 441.5045351240733 L 137 439.5045351240733 M 137 439.5045351240733 M 137 437.5045351240733 L 137 435.5045351240733 M 137 435.5045351240733 M 137 433.5045351240733 L 137 431.5045351240733 M 137 431.5045351240733 M 137 429.5045351240733 L 137 427.5045351240733 M 137 427.5045351240733 M 137 425.5045351240733 L 137 423.5045351240733 M 137 423.5045351240733 M 137 421.5045351240733 L 137 419.5045351240733 M 137 419.5045351240733 M 137 417.5045351240733 L 137 415.5045351240733 M 137 415.5045351240733 M 137 413.5045351240733 L 137 411.5045351240733 M 137 411.5045351240733 M 137 409.5045351240733 L 137 407.5045351240733 M 137 407.5045351240733 M 137 405.5045351240733 L 137 403.5045351240733 M 137 403.5045351240733 M 137 401.5045351240733 L 137 399.5045351240733 M 137 399.5045351240733 M 137 397.5045351240733 L 137 395.5045351240733 M 137 395.5045351240733 M 137 393.5045351240733 L 137 391.5045351240733 M 137 391.5045351240733 M 137 389.5045351240733 L 137 387.5045351240733 M 137 387.5045351240733 M 137 385.5045351240733 L 137 383.5045351240733 M 137 383.5045351240733 M 137 381.5045351240733 L 137 379.5045351240733 M 137 379.5045351240733 M 137 377.5045351240733 L 137 375.5045351240733 M 137 375.5045351240733 M 137 373.5045351240733 L 137 371.5045351240733 M 137 371.5045351240733 M 137 369.5045351240733 L 137 367.5045351240733 M 137 367.5045351240733 M 137 365.5045351240733 L 137 363.5045351240733 M 137 363.5045351240733 M 137 361.5045351240733 L 137 359.5045351240733 M 137 359.5045351240733 M 137 357.5045351240733 L 137 355.5045351240733 M 137 355.5045351240733 M 137 353.5045351240733 L 137 351.5045351240733 M 137 351.5045351240733 M 137 349.5045351240733 L 137 347.5045351240733 M 137 347.5045351240733 M 137 345.5045351240733 L 137 343.5045351240733 M 137 343.5045351240733 M 137 341.5045351240733 L 137 339.5045351240733 M 137 339.5045351240733 M 137 337.5045351240733 L 137 335.5045351240733 M 137 335.5045351240733 M 137 333.5045351240733 L 137 331.5045351240733 M 137 331.5045351240733 M 137 329.5045351240733 L 137 327.5045351240733 M 137 327.5045351240733 M 137 325.5045351240733 L 137 323.5045351240733 M 137 323.5045351240733 M 137 321.5045351240733 L 137 319.5045351240733 M 137 319.5045351240733 M 137 317.5045351240733 L 137 315.5045351240733 M 137 315.5045351240733 M 137 313.5045351240733 L 137 311.5045351240733 M 137 311.5045351240733 M 137 309.5045351240733 L 137 307.5045351240733 M 137 307.5045351240733 M 137 305.5045351240733 L 137 303.5045351240733 M 137 303.5045351240733 M 137 301.5045351240733 L 137 299.5045351240733 M 137 299.5045351240733 M 137 297.5045351240733 L 137 295.5045351240733 M 137 295.5045351240733 M 137 293.5045351240733 L 137 291.5045351240733 M 137 291.5045351240733 M 137 289.5045351240733 L 137 287.5045351240733 M 137 287.5045351240733 M 137 285.5045351240733 L 137 283.5045351240733 M 137 283.5045351240733 M 137 281.5045351240733 L 137 279.5045351240733 M 137 279.5045351240733 M 137 277.5045351240733 L 137 275.5045351240733 M 137 275.5045351240733 M 137 273.5045351240733 L 137 271.5045351240733 M 137 271.5045351240733 M 137 269.5045351240733 L 137 267.5045351240733 M 137 267.5045351240733 M 137 265.5045351240733 L 137 263.5045351240733 M 137 263.5045351240733 M 137 261.5045351240733 L 137 259.5045351240733 M 137 259.5045351240733 M 137 257.5045351240733 L 137 255.5045351240733 M 137 255.5045351240733 M 137 253.5045351240733 L 137 251.5045351240733 M 137 251.5045351240733 M 137 249.5045351240733 L 137 247.5045351240733 M 137 247.5045351240733 M 137 245.5045351240733 L 137 243.5045351240733 M 137 243.5045351240733 M 137 241.5045351240733 L 137 239.5045351240733 M 137 239.5045351240733 M 137 237.5045351240733 L 137 235.5045351240733 M 137 235.5045351240733 M 137 233.5045351240733 L 137 231.5045351240733 M 137 231.5045351240733 M 137 229.5045351240733 L 137 227.5045351240733 M 137 227.5045351240733 M 137 225.5045351240733 L 137 223.5045351240733 M 137 223.5045351240733 M 137 221.5045351240733 L 137 219.5045351240733 M 137 219.5045351240733 M 137 217.5045351240733 L 137 215.5045351240733 M 137 215.5045351240733 M 137 213.5045351240733 L 137 211.5045351240733 M 137 211.5045351240733 M 137 209.5045351240733 L 137 207.5045351240733 M 137 207.5045351240733 M 137 205.5045351240733 L 137 203.5045351240733 M 137 203.5045351240733 M 137 201.5045351240733 L 137 199.5045351240733 M 137 199.5045351240733 M 137 197.5045351240733 L 137 195.5045351240733 M 137 195.5045351240733 M 137 193.5045351240733 L 137 191.5045351240733 M 137 191.5045351240733 M 137 189.5045351240733 L 137 187.5045351240733 M 137 187.5045351240733 M 137 185.5045351240733 L 137 183.5045351240733 M 137 183.5045351240733 M 137 181.5045351240733 L 137 179.5045351240733 M 137 179.5045351240733 M 137 177.5045351240733 L 137 175.5045351240733 M 137 175.5045351240733 M 137 173.5045351240733 L 137 171.5045351240733 M 137 171.5045351240733 M 137 169.5045351240733 L 137 167.5045351240733 M 137 167.5045351240733 M 137 165.5045351240733 L 137 163.5045351240733 M 137 163.5045351240733 M 137 161.5045351240733 L 137 159.5045351240733 M 137 159.5045351240733 M 137 157.5045351240733 L 137 155.5045351240733 M 137 155.5045351240733 M 137 153.5045351240733 L 137 151.5045351240733 M 137 151.5045351240733 M 137 149.5045351240733 L 137 147.5045351240733 M 137 147.5045351240733 M 137 145.5045351240733 L 137 143.5045351240733 M 137 143.5045351240733 M 137 141.5045351240733 L 137 139.5045351240733 M 137 139.5045351240733 M 137 137.5045351240733 L 137 135.5045351240733 M 137 135.5045351240733 M 137 133.5045351240733 L 137 131.5045351240733 M 137 131.5045351240733 M 137 129.5045351240733 L 137 127.5045351240733 M 137 127.5045351240733 M 137 125.5045351240733 L 137 123.5045351240733 M 137 123.5045351240733 M 137 121.5045351240733 L 137 119.5045351240733 M 137 119.5045351240733 M 137 117.5045351240733 L 137 115.5045351240733 M 137 115.5045351240733 M 137 113.5045351240733 L 137 111.5045351240733 M 137 111.5045351240733 M 137 109.5045351240733 L 137 107.5045351240733 M 137 107.5045351240733 M 137 105.5045351240733 L 137 103.5045351240733 M 137 103.5045351240733 M 137 101.5045351240733 L 137 99.5045351240733 M 137 99.5045351240733 M 137 97.5045351240733 L 137 95.5045351240733 M 137 95.5045351240733 M 137 93.5045351240733 L 137 91.5045351240733 M 137 91.5045351240733 M 137 89.5045351240733 L 137 87.5045351240733 M 137 87.5045351240733 M 137 85.5045351240733 L 137 83.5045351240733 M 137 83.5045351240733 M 137 81.5045351240733 L 137 79.5045351240733 M 137 79.5045351240733 M 137 77.5045351240733 L 137 75.5045351240733 M 137 75.5045351240733 M 137 73.5045351240733 L 137 71.5045351240733 M 137 71.5045351240733 M 137 69.5045351240733 L 137 67.5045351240733 M 137 67.5045351240733 M 137 65.5045351240733 L 137 63.5045351240733 M 137 63.5045351240733 M 137 61.5045351240733 L 137 59.5045351240733 M 137 59.5045351240733 M 137 57.5045351240733 L 137 55.5045351240733 M 137 55.5045351240733 M 137 53.5045351240733 L 137 51.5045351240733 M 137 51.5045351240733 M 137 49.5045351240733 L 137 47.5045351240733 M 137 47.5045351240733 M 137 45.5045351240733 L 137 43.5045351240733 M 137 43.5045351240733 M 137 41.5045351240733 L 137 39.5045351240733 M 137 39.5045351240733 M 137 37.5045351240733 L 137 35.5045351240733 M 137 35.5045351240733 M 137 33.5045351240733 L 137 31.5045351240733 M 137 31.5045351240733 M 137 29.5045351240733 L 137 27.5045351240733 M 137 27.5045351240733 M 137 25.5045351240733 L 137 23.5045351240733 M 137 23.5045351240733 M 137 21.5045351240733 L 137 19.5045351240733 M 137 19.5045351240733 M 137 17.5045351240733 L 137 15.5045351240733 M 137 15.5045351240733 M 137 13.5045351240733 L 137 11.5045351240733 M 137 11.5045351240733 M 136.99999999999997 9.5045351240733 L 136.99999999999997 7.5045351240733 M 136.99999999999997 7.5045351240733 M 136.99999999999994 5.5045351240733 L 136.99999999999994 4.5" stroke-miterlimit="10" stroke-width="2"/></g></g></g></g><g transform="matrix(1,0,0,1,95.5,173.0045351240733)"><g transform="translate(0,0)"><g transform="translate(-272,-231.5045351240733) translate(176.5,58.5) matrix(1,0,0,1,0,0)"><g><path fill="none" stroke="#003068" d="M 265 233.7545351240733 L 100 177.5045351240733" stroke-miterlimit="10" stroke-width="2"/></g></g></g></g><g transform="matrix(1,0,0,1,95.5,169.7545351240733)"><g transform="translate(0,0)"><g transform="translate(-267,-178.5045351240733) translate(171.5,8.75) matrix(1,0,0,1,0,0)"><g><path fill="none" stroke="#003068" d="M 265 174.2545351240733 L 100 177.5045351240733" stroke-miterlimit="10" stroke-width="2"/></g></g></g></g><g transform="matrix(1,0,0,1,95.5,77.2545351240733)"><g transform="translate(0,0)"><g transform="translate(-263,-80.5045351240733) translate(167.5,3.25) matrix(1,0,0,1,0,0)"><g><path fill="none" stroke="#003068" d="M 265 81.7545351240733 L 100 177.5045351240733" stroke-miterlimit="10" stroke-width="2"/></g></g></g></g><g transform="matrix(1,0,0,1,95.5,173.0045351240733)"><g transform="translate(0,0)"><g transform="translate(-376,-469.5045351240733) translate(280.5,296.5) matrix(1,0,0,1,0,0)"><g><path fill="none" stroke="#003068" d="M 380 475.5045351240733 L 100 177.5045351240733" stroke-miterlimit="10" stroke-width="2"/></g></g></g></g></g></svg>